<svg width="539" height="233" viewBox="0 0 539 233" fill="none" xmlns="http://www.w3.org/2000/svg">
<path d="M28.884 165.3V203H11.6V165.3H2.32V151.844H11.6V132.356H28.884V151.844H38.164V165.3H28.884ZM73.7334 190.936C83.0134 190.936 85.5654 184.092 85.5654 177.596C85.5654 171.216 82.7814 164.372 73.7334 164.372C64.5694 164.372 61.7854 171.216 61.7854 177.596C61.7854 184.092 64.3374 190.936 73.7334 190.936ZM73.7334 150.8C89.6254 150.8 102.849 161.472 102.849 177.48C102.849 193.836 89.9734 204.044 73.7334 204.044C57.3774 204.044 44.5014 193.836 44.5014 177.48C44.5014 161.472 57.7254 150.8 73.7334 150.8ZM141.738 190.24C148.698 190.24 153.918 184.208 153.918 177.364C153.918 170.636 148.698 164.604 141.738 164.604C134.778 164.604 129.558 170.636 129.558 177.364C129.558 184.208 134.778 190.24 141.738 190.24ZM153.918 158.108V151.844H171.318V202.884C171.318 219.704 157.978 232 141.738 232C127.818 232 112.622 225.04 111.81 209.496H129.21C130.486 215.528 135.242 219.124 140.81 219.124C148.466 219.124 153.918 212.164 153.918 204.856V196.736C150.438 202.072 142.898 204.16 136.402 204.16C121.902 204.16 110.998 191.516 110.998 177.364C110.998 163.212 121.902 150.684 136.402 150.684C142.898 150.684 148.93 152.308 153.918 158.108ZM201.041 171.332H223.893C223.893 171.332 223.081 161.82 212.525 161.82C201.621 161.82 201.041 171.332 201.041 171.332ZM240.597 176.32C240.597 177.364 240.481 178.524 240.481 179.568H200.809C200.809 185.484 204.985 191.748 211.829 191.748C217.977 191.748 221.805 187.688 221.921 183.976H239.669C236.653 197.432 225.749 204.16 212.177 204.16C194.545 204.16 182.365 193.72 182.365 177.48C182.365 161.472 195.009 150.684 212.177 150.684C227.721 150.684 240.597 159.964 240.597 176.32ZM273.572 165.3V203H256.288V165.3H247.008V151.844H256.288V132.356H273.572V151.844H282.852V165.3H273.572ZM344.405 174V203H327.005V174C327.005 167.968 324.685 164.72 319.233 164.72C313.781 164.72 309.489 170.52 309.489 177.48V203H292.089V116H309.489V158.108C312.969 153.7 318.421 150.684 325.149 150.684C338.837 150.684 344.405 160.08 344.405 174ZM372.322 171.332H395.174C395.174 171.332 394.362 161.82 383.806 161.82C372.902 161.82 372.322 171.332 372.322 171.332ZM411.878 176.32C411.878 177.364 411.762 178.524 411.762 179.568H372.09C372.09 185.484 376.266 191.748 383.11 191.748C389.258 191.748 393.086 187.688 393.202 183.976H410.95C407.934 197.432 397.03 204.16 383.458 204.16C365.826 204.16 353.646 193.72 353.646 177.48C353.646 161.472 366.29 150.684 383.458 150.684C399.002 150.684 411.878 159.964 411.878 176.32ZM451.813 164.72C445.317 164.72 440.329 171.332 440.329 177.48V203H422.929V151.844H440.329V158.108C442.997 154.28 447.405 150.684 453.785 150.684C455.293 150.684 457.613 151.148 459.005 151.844V167.62H458.773C457.033 165.532 454.481 164.72 451.813 164.72Z" fill="black"/>
<path d="M466.18 194.068C466.18 188.384 470.704 183.86 476.388 183.86C481.956 183.86 486.596 188.384 486.596 194.068C486.596 199.636 481.956 204.16 476.388 204.16C470.704 204.16 466.18 199.636 466.18 194.068Z" fill="#CE2D4F"/>
<path d="M24.36 83.48C24.36 90.208 29.58 96.24 36.54 96.24C43.5 96.24 48.72 90.208 48.72 83.48C48.72 76.752 43.5 70.72 36.54 70.72C29.58 70.72 24.36 76.752 24.36 83.48ZM24.36 109H6.96V22H24.36V64.108C28.884 58.54 35.264 56.684 41.876 56.684C56.376 56.684 67.28 69.328 67.28 83.48C67.28 97.632 56.376 110.16 41.876 110.16C35.264 110.16 27.84 108.072 24.36 102.852V109ZM94.1032 77.332H116.955C116.955 77.332 116.143 67.82 105.587 67.82C94.6832 67.82 94.1032 77.332 94.1032 77.332ZM133.659 82.32C133.659 83.364 133.543 84.524 133.543 85.568H93.8712C93.8712 91.484 98.0472 97.748 104.891 97.748C111.039 97.748 114.867 93.688 114.983 89.976H132.731C129.715 103.432 118.811 110.16 105.239 110.16C87.6072 110.16 75.4272 99.72 75.4272 83.48C75.4272 67.472 88.0712 56.684 105.239 56.684C120.783 56.684 133.659 65.964 133.659 82.32ZM166.634 71.3V109H149.35V71.3H140.07V57.844H149.35V38.356H166.634V57.844H175.914V71.3H166.634ZM207.075 71.3V109H189.791V71.3H180.511V57.844H189.791V38.356H207.075V57.844H216.355V71.3H207.075ZM241.369 77.332H264.221C264.221 77.332 263.409 67.82 252.853 67.82C241.949 67.82 241.369 77.332 241.369 77.332ZM280.925 82.32C280.925 83.364 280.809 84.524 280.809 85.568H241.137C241.137 91.484 245.313 97.748 252.157 97.748C258.305 97.748 262.133 93.688 262.249 89.976H279.997C276.981 103.432 266.077 110.16 252.505 110.16C234.873 110.16 222.693 99.72 222.693 83.48C222.693 67.472 235.337 56.684 252.505 56.684C268.049 56.684 280.925 65.964 280.925 82.32ZM320.86 70.72C314.364 70.72 309.376 77.332 309.376 83.48V109H291.976V57.844H309.376V64.108C312.044 60.28 316.452 56.684 322.832 56.684C324.34 56.684 326.66 57.148 328.052 57.844V73.62H327.82C326.08 71.532 323.528 70.72 320.86 70.72Z" fill="black"/>
</svg>
