<svg width="500" height="500" viewBox="0 0 500 500" fill="none" xmlns="http://www.w3.org/2000/svg">
<path fill-rule="evenodd" clip-rule="evenodd" d="M0 250C138.071 250 250 138.071 250 0C250 138.071 361.929 250 500 250C361.929 250 250 361.929 250 500C250 361.929 138.071 250 0 250Z" fill="white"/>
<path fill-rule="evenodd" clip-rule="evenodd" d="M430.302 362C430.113 400.113 399.158 430.951 361.001 430.951H361V430.952H361.001C399.158 430.952 430.113 461.79 430.302 499.903C430.491 461.79 461.446 430.952 499.603 430.952C499.603 430.952 499.604 430.952 499.604 430.952H499.603C461.446 430.952 430.491 400.113 430.302 362Z" fill="white"/>
</svg>
