<svg width="99" height="156" viewBox="0 0 99 156" fill="none" xmlns="http://www.w3.org/2000/svg">
<path d="M27.2897 3.25904C9.54753 13.1275 -0.814985 32.2351 3.50511 60.0854C6.83303 81.5395 34.4695 99.029 56.0471 87.3353C61.2169 84.5335 61.6497 76.6506 59.6973 71.8217C56.6087 64.1827 49.5986 61.4364 41.2535 62.2827C26.0938 63.8199 9.25106 76.8295 11.6462 92.4369C15.3943 116.861 38.955 132.204 62.8885 138.159C67.6558 139.345 104.328 142.533 85.2889 134.714C81.8336 133.295 71.323 129.427 74.6807 131.046C80.2477 133.73 83.4904 135.022 89.7971 135.953C91.0492 136.138 97.7194 136.246 95.062 138.514C89.6207 143.157 84.5941 148.178 79.0288 152.709" stroke="#1C1C1C" stroke-width="5" stroke-linecap="round"/>
</svg>
