<svg width="400" height="400" viewBox="0 0 400 400" fill="none" xmlns="http://www.w3.org/2000/svg">
<path d="M392.63 374.174C389.351 382.812 375.274 388.25 324.806 388.25C274.337 388.25 266.339 383.212 262.5 381.052C262.5 381.052 261.7 380.092 260.66 378.253C170.521 379.053 63.1056 379.453 51.9081 376.813C32.3926 372.174 27.2738 330.664 24.8743 293.232C22.4749 255.801 39.1111 252.442 39.1111 252.442L43.3501 251.962C47.7491 201.813 68.6243 153.824 88.6197 142.867C112.614 129.67 161.323 137.268 173.72 135.268C183.238 127.59 190.756 120.472 190.756 120.472C195.635 117.112 201.154 117.592 223.709 117.032C246.264 116.473 251.143 118.392 252.102 119.592C252.102 119.592 260.34 127.43 266.979 135.188C279.296 137.348 340.642 129.27 364.477 142.787C388.471 156.383 398.709 203.333 399.189 253.321C400.309 278.276 395.91 365.536 392.63 374.174ZM35.6718 122.551C38.5512 122.071 41.3505 121.112 44.2299 120.472C48.3889 119.592 52.7879 119.672 56.787 118.392C59.5064 117.512 62.4657 115.913 65.1851 116.793C65.1851 116.793 82.1412 116.713 84.7806 117.272C87.42 117.832 94.4584 122.951 100.377 123.671C106.296 124.391 117.173 119.912 123.972 115.353C124.452 115.033 124.851 114.793 125.251 114.473C124.931 113.673 124.452 112.953 123.972 112.314C121.412 113.753 118.373 115.433 115.814 116.633C111.495 118.632 108.935 118.952 108.695 118.072C108.375 117.112 116.613 114.233 122.372 111.434C122.612 111.354 122.852 111.194 123.012 111.114C122.372 110.314 121.732 109.514 121.172 108.634C117.333 110.634 110.455 114.313 108.615 114.953C106.296 115.753 105.816 113.753 106.856 113.353C107.815 112.953 114.534 109.754 120.053 106.635C119.653 105.675 119.413 104.635 119.493 103.676C115.254 106.155 109.975 109.194 106.376 110.474C99.8972 112.793 93.0187 112.474 86.9401 112.793C80.8615 113.113 52.1481 112.633 51.8282 112.793L50.6284 112.394C47.5091 111.754 44.3899 111.034 41.1906 110.394C36.6316 109.434 31.7527 108.474 27.5137 110.314C24.9543 111.434 21.835 114.633 19.0356 114.633L0 113.993C0 113.993 0.399909 120.072 5.75868 120.952C11.1175 121.831 16.6362 120.952 16.6362 120.952C19.9154 120.952 23.1147 121.991 26.314 122.391C29.4333 122.791 32.5526 123.031 35.6718 122.551Z" fill="#E45D55"/>
<path d="M266.739 22.8939C266.5 22.654 266.26 22.4141 265.94 22.1741C266.899 20.9744 267.619 19.6947 268.179 18.335C270.099 16.0955 270.739 14.1759 270.739 11.0567C270.739 10.9767 270.659 10.9767 270.659 11.0567C270.419 12.7363 269.859 14.4159 268.979 15.9355C269.379 14.3359 269.539 12.6563 269.459 10.9767C267.379 12.0164 265.06 12.4163 262.66 12.2564C262.58 12.2564 262.58 12.0964 262.66 12.0964C265.06 12.0164 267.299 11.2966 269.379 10.1769C269.299 9.69696 269.299 9.13709 269.139 8.6572C264.74 10.2568 260.181 10.6567 255.542 10.3368C256.262 10.1769 257.062 10.0169 257.782 9.85693C260.821 9.85693 263.78 9.537 266.34 8.25729C266.5 8.17731 266.34 8.01735 266.26 8.09733C264.1 9.13709 261.621 9.45702 258.981 9.537C260.741 8.97713 262.5 8.25729 264.1 7.29751C264.18 7.21753 264.1 7.05757 264.02 7.05757C259.221 8.17731 254.742 8.81716 250.023 9.05711C249.623 9.05711 249.223 8.97713 248.824 8.97713C247.624 8.89715 246.504 8.81716 245.304 8.73718C244.585 8.57722 243.865 8.33727 243.145 8.17731C245.224 8.09733 247.304 7.7774 249.383 7.29751C249.543 7.21753 249.463 6.97759 249.303 6.97759C246.984 7.53746 244.665 7.85738 242.425 7.93737C241.545 7.69742 240.665 7.45748 239.786 7.13755C230.188 4.25821 220.75 0.419084 210.752 0.0191752C201.314 -0.300752 190.997 3.37841 186.198 11.3766C186.918 8.81716 188.037 6.49769 190.037 4.41817C190.197 4.17822 189.957 3.77832 189.717 4.01826C186.838 6.25775 185.318 9.29706 184.758 12.5763C182.599 12.0964 180.439 12.1764 178.44 12.7363C177.72 12.6563 176.92 12.5763 176.2 12.7363C172.361 13.3761 170.122 17.0553 168.362 20.1746C168.282 20.2546 168.442 20.3345 168.522 20.2546C170.122 17.9351 171.881 15.3757 174.681 14.3359C174.92 14.2559 175.24 14.1759 175.48 14.096C174.521 14.7358 173.641 15.4556 172.841 16.4154C172.121 17.0553 171.401 17.7751 170.761 18.5749C167.082 23.4538 164.683 30.9721 164.923 37.0507C164.923 37.2107 165.163 37.2107 165.163 37.0507C165.083 31.532 167.322 25.0535 170.282 20.3345C168.762 23.2139 167.882 26.4131 167.162 29.6924C165.803 36.4109 165.403 43.3693 166.282 50.2477C166.522 48.4881 166.842 46.7285 167.242 45.1289C167.322 44.8889 167.642 44.9689 167.642 45.2088C167.242 49.3679 167.962 53.527 167.642 57.606C169.482 64.7244 172.761 71.4429 177.64 76.9616C181.639 81.4406 186.518 85.1197 190.277 89.8386C195.236 96.0772 197.875 103.755 200.515 111.354C211.792 112.553 223.949 113.273 233.867 107.755C236.186 106.475 242.985 101.916 244.185 98.5567C244.824 93.5178 262.26 62.9648 264.42 54.6467C264.9 52.8871 266.18 48.4081 267.299 43.2893C267.059 45.2888 266.899 47.2084 267.219 49.2079C267.219 49.4479 267.619 49.3679 267.619 49.128C267.219 43.7692 268.979 38.5704 268.899 33.1316C268.979 32.3318 268.979 31.612 268.979 30.8921C269.619 27.7728 269.539 24.4936 266.739 22.8939ZM268.659 29.4524C268.579 26.973 268.099 24.8135 267.139 23.3738C269.059 24.8135 269.219 27.133 268.659 29.4524ZM258.341 13.696C261.061 14.096 263.7 13.776 266.42 13.696C266.58 13.696 266.58 13.856 266.42 13.936C263.78 14.7358 260.901 14.4159 258.261 13.856C258.181 13.856 258.261 13.696 258.341 13.696Z" fill="#86361B"/>
<path d="M191.557 119.832C188.997 126.15 189.077 133.429 191.637 139.667L190.917 139.987C188.358 133.908 188.198 126.87 190.357 120.711C190.597 120.472 190.677 120.392 190.677 120.392C190.997 120.152 191.237 119.992 191.557 119.832ZM250.983 118.792C250.663 118.632 250.263 118.472 249.784 118.312C249.943 118.552 250.103 118.792 250.263 119.032C251.063 120.472 251.783 121.991 252.343 123.511C252.663 124.551 252.983 125.59 253.303 126.63L254.023 129.27L254.822 129.03L254.103 126.39C253.783 125.35 253.543 124.311 253.143 123.191C252.503 121.751 251.783 120.232 250.983 118.792ZM178.12 151.984C176.36 147.185 175.64 142.067 174.921 137.108L174.121 137.188C174.841 142.227 175.561 147.345 177.32 152.224C178.76 156.063 181.479 161.262 186.598 164.381L186.998 164.621L187.158 164.142C189.397 158.703 191.077 153.584 192.197 148.705C192.357 147.985 192.597 147.505 192.917 147.505C193.077 147.505 193.316 147.585 193.476 147.665C195.316 148.465 196.996 149.425 198.675 150.545L199.155 149.905C197.476 148.785 195.716 147.825 193.876 146.945C193.636 146.865 193.236 146.706 192.837 146.706C191.797 146.786 191.477 148.065 191.397 148.545C190.357 153.184 188.678 158.223 186.598 163.422C182.039 160.382 179.48 155.583 178.12 151.984ZM260.501 161.342C258.582 163.022 255.862 163.902 253.303 164.621C252.903 164.701 252.503 164.861 252.103 164.941C251.543 159.423 250.423 153.984 248.744 148.785C248.664 148.465 248.504 147.985 248.104 147.665C247.464 147.105 246.504 147.185 245.545 147.745C245.465 147.825 245.305 147.905 245.225 147.985C244.745 148.305 244.265 148.625 243.705 148.545L243.625 149.345C244.345 149.425 244.985 149.025 245.624 148.625C245.704 148.545 245.864 148.465 245.944 148.465C246.504 148.145 247.224 147.905 247.624 148.305C247.784 148.465 247.944 148.785 248.024 149.105C249.784 154.464 250.903 159.982 251.383 165.581L251.463 166.061L251.943 165.901C252.503 165.741 253.063 165.581 253.623 165.421C256.342 164.621 259.141 163.742 261.141 161.982C262.021 161.182 262.901 160.142 263.7 158.943C267.38 153.344 268.579 145.986 267.539 136.388L266.74 136.468C267.779 145.906 266.58 153.104 263.061 158.543C262.181 159.663 261.381 160.622 260.501 161.342ZM95.6588 180.858C90.9399 168.86 89.1803 155.743 90.5399 142.946C90.6199 142.546 90.6999 142.147 90.9399 142.147L90.7799 141.347C90.38 141.427 89.9001 141.747 89.7401 142.866C88.3804 155.823 90.14 169.02 94.9389 181.178L95.6588 180.858ZM102.857 291.872L104.777 305.389C104.777 305.629 104.857 305.789 104.857 306.029L107.816 327.144L108.616 327.064L105.577 305.389C104.297 295.232 104.857 245.643 105.177 234.685C105.417 227.247 105.017 216.37 99.3379 207.892L98.6981 208.371C103.177 215.01 104.297 223.328 104.457 230.126C103.177 228.927 101.497 228.127 99.7378 227.887L99.6579 228.687C101.417 228.927 103.017 229.727 104.217 231.006L104.457 230.766C104.457 232.126 104.457 233.406 104.457 234.685C104.297 241.324 103.737 276.756 104.297 295.631L101.657 276.836C100.698 269.877 99.6579 262.759 96.2986 256.36C93.3393 250.762 87.5006 244.683 79.6624 244.283L79.5825 245.083C87.0208 245.483 92.6995 251.402 95.5788 256.76C98.858 262.999 99.8978 270.117 100.858 276.996L102.857 291.232C100.538 291.472 96.6985 291.392 95.0189 290.353C93.8992 289.633 93.0994 288.353 92.6195 287.393C91.4997 285.314 90.6999 283.074 90.3 280.675H90.22C90.46 271.717 88.3804 262.599 84.0614 254.761L83.3416 255.161C89.1003 265.718 90.8599 278.835 88.1405 290.353C79.8224 289.393 71.8242 292.592 64.066 295.631C58.0674 297.951 51.9088 300.35 45.5902 300.99C38.7118 301.63 31.7534 300.03 25.7548 296.591L25.3548 297.311C30.5537 300.35 36.5523 301.95 42.5509 301.95C43.5907 301.95 44.6304 301.87 45.5902 301.79C52.0687 301.23 58.3073 298.751 64.3059 296.431C72.4641 293.232 80.1423 290.273 88.3804 291.312L88.7004 291.392L88.7804 291.073C89.4202 288.513 89.8201 285.954 89.9801 283.314C90.46 284.914 91.0198 286.434 91.8197 287.873C92.3795 288.993 93.1793 290.273 94.539 291.153C95.8987 292.032 98.2182 292.272 100.378 292.272C101.258 291.952 102.137 291.952 102.857 291.872ZM82.3018 286.594C82.5418 286.594 82.7817 286.514 83.0217 286.434C83.8215 286.114 84.3814 285.314 84.6213 284.514C85.3411 282.435 85.2612 277.716 82.0619 277.716C78.9426 277.716 80.2223 283.314 80.7822 285.074C81.1021 285.794 81.502 286.594 82.3018 286.594ZM32.1533 265.478L31.6734 266.118C36.6323 270.197 43.1108 272.517 49.5093 272.517C49.7493 272.517 49.9892 272.517 50.2292 272.517V271.717C43.7506 271.877 37.1122 269.637 32.1533 265.478ZM361.358 152.144C356.559 157.183 351.12 162.942 346.961 169.58C342.482 176.779 340.243 184.217 340.483 191.095H341.283C341.043 184.377 343.282 177.099 347.601 170.06C351.68 163.502 357.119 157.823 361.838 152.784C364.077 150.385 366.317 148.065 368.556 145.746C368.316 145.586 368.156 145.426 367.917 145.266C365.757 147.505 363.598 149.825 361.358 152.144ZM326.806 321.945C326.006 307.469 328.965 292.912 331.845 278.755C335.124 262.839 338.483 246.363 336.324 230.046L335.524 230.126C337.603 246.283 334.244 262.679 331.045 278.515C328.166 292.672 325.206 307.309 326.006 321.865C322.887 322.025 319.768 322.505 316.728 323.305L316.968 324.105C326.406 321.626 336.484 322.265 345.522 325.945L345.842 325.225C339.763 322.825 333.284 321.706 326.806 321.945ZM119.413 328.104L120.213 327.944C119.173 321.626 115.654 315.707 110.775 311.708L110.295 312.348C115.014 316.267 118.374 322.025 119.413 328.104ZM331.845 317.786C335.364 316.107 339.363 315.547 343.202 316.187L343.362 315.387C339.363 314.747 335.124 315.307 331.525 317.067L331.845 317.786ZM385.353 368.495C386.872 370.734 387.672 373.534 387.512 376.253H388.312C388.472 373.374 387.592 370.414 385.992 368.015L385.353 368.495ZM389.992 369.455L389.272 369.695C389.512 370.414 389.592 371.214 389.512 372.014L390.311 372.094C390.391 371.214 390.231 370.334 389.992 369.455ZM286.895 294.432C284.496 292.352 282.896 289.393 280.497 287.313C278.817 285.874 276.817 284.834 274.818 283.954C265.38 279.715 255.222 277.316 244.905 276.756C240.106 276.516 235.307 276.756 230.508 276.996C226.029 277.236 225.629 280.275 225.869 284.594C225.949 285.554 226.029 286.514 226.269 287.393C227.789 287.153 229.708 287.393 230.908 287.713C234.827 288.593 238.426 290.753 241.385 293.472C241.945 293.952 242.505 294.512 243.065 294.992C245.065 295.711 246.984 296.511 248.904 297.311C251.623 297.551 254.502 297.311 257.142 297.951C259.541 298.511 262.261 299.711 264.34 298.431C266.26 297.231 266.5 294.512 268.019 292.832C268.899 291.872 270.099 291.392 271.379 290.993C273.538 290.353 276.018 290.113 278.017 291.153C280.017 292.192 281.376 294.752 280.337 296.831C279.537 298.431 277.617 299.311 277.137 301.07C276.018 304.669 281.776 307.869 280.257 311.308C279.697 312.588 278.177 313.307 276.737 313.227C275.298 313.227 274.018 312.588 272.738 311.868C269.299 309.948 266.26 307.389 262.661 305.869C262.341 305.709 261.941 305.629 261.621 305.469C266.1 311.068 266.34 318.906 266.34 326.105C266.34 333.943 266.42 341.861 266.42 349.699C266.42 355.858 266.5 362.096 267.939 368.015C268.659 371.054 269.779 374.014 271.858 376.333C273.938 378.653 276.977 380.252 280.017 379.932C283.136 379.612 285.695 377.453 287.855 375.293C302.651 360.577 309.77 339.142 309.69 318.266C309.69 313.067 309.05 307.469 305.451 303.79C300.572 298.591 292.174 298.911 286.895 294.432ZM220.11 216.69C216.671 217.009 217.391 224.528 218.031 226.687C218.191 227.167 218.351 227.647 218.751 227.967C219.391 228.527 220.43 228.287 221.07 227.727C221.71 227.167 222.03 226.367 222.27 225.567C222.83 223.568 224.109 216.29 220.11 216.69ZM221.63 249.642C221.39 248.202 219.71 243.803 217.631 244.923C215.791 245.883 216.271 251.722 216.511 253.401C216.591 254.121 216.831 254.921 217.311 255.561C217.791 256.2 218.671 256.52 219.311 256.201C219.63 256.041 219.87 255.801 220.11 255.481C221.39 253.801 221.95 251.642 221.63 249.642ZM215.951 270.837C214.912 272.677 214.912 274.836 215.071 276.916C215.231 278.835 215.551 280.915 216.831 282.355C217.311 282.914 217.951 283.394 218.671 283.474C219.39 283.474 220.03 283.074 220.51 282.514C220.91 281.955 221.15 281.235 221.31 280.515C221.95 277.556 221.63 274.436 220.35 271.717C219.391 269.477 217.471 268.118 215.951 270.837ZM256.022 335.062C256.022 335.062 199.395 344.1 196.356 343.301C151.646 332.903 146.607 333.623 134.05 340.901C121.573 348.179 104.617 370.014 102.297 372.894C99.9778 375.773 94.9389 381.612 106.776 381.932C106.776 381.932 108.696 388.89 120.373 381.932C120.373 381.932 123.013 386.011 134.05 381.612C145.087 377.213 150.046 374.014 150.046 374.014C157.645 377.533 170.442 385.931 184.119 380.732C184.119 380.732 187.878 378.093 198.115 378.972C208.273 379.852 238.266 385.691 262.421 380.972C262.421 381.052 250.823 363.296 256.022 335.062ZM180.679 55.6863C185.638 53.7668 186.838 48.568 185.798 43.769C185.798 43.6091 185.558 43.6891 185.558 43.769C185.158 48.0081 185.478 53.7668 180.679 55.6863ZM188.598 24.6534C188.758 24.8134 188.997 24.4935 188.837 24.3335C187.238 22.8938 186.118 21.6941 185.638 19.6146C185.158 17.775 184.678 15.7754 184.918 13.8559C184.918 13.7759 184.838 13.7759 184.838 13.8559C183.479 17.855 185.238 22.254 188.598 24.6534ZM183.479 25.5332C183.799 24.9733 184.199 24.4935 184.598 24.0136C184.998 23.4537 185.558 22.9738 186.198 22.5739C186.278 22.4939 186.198 22.3339 186.118 22.3339C185.398 22.5739 184.838 22.9738 184.279 23.4537C183.719 23.9336 183.479 24.6534 183.239 25.3733C183.159 25.6132 183.399 25.6932 183.479 25.5332ZM191.637 25.8531C191.557 25.8531 191.557 25.8531 191.637 25.8531C199.075 30.5721 206.673 24.0935 212.752 20.0145C212.912 19.9345 212.752 19.6146 212.592 19.7745C206.353 23.3737 199.475 29.9322 191.637 25.8531ZM241.226 21.934C247.704 24.3335 258.662 29.8522 264.5 23.0538C264.74 22.8138 264.42 22.4139 264.1 22.5739C260.021 25.1333 256.342 26.0931 251.543 25.1333C248.024 24.4135 244.665 22.9738 241.226 21.7741C241.146 21.7741 241.066 21.934 241.226 21.934ZM250.103 28.2526C249.944 28.2526 249.944 28.4925 250.103 28.4925C255.622 28.1726 260.181 33.3714 265.7 31.2919C265.94 31.2119 265.86 30.812 265.62 30.892C260.181 32.8116 255.542 27.7727 250.103 28.2526ZM263.061 39.45C260.101 38.9701 257.462 37.5305 255.942 34.8911C255.862 34.8111 255.782 34.8911 255.782 34.9711C256.822 38.0104 259.621 40.2499 262.981 40.0899C263.3 40.0899 263.46 39.53 263.061 39.45ZM178.68 48.6479C180.439 46.8883 181.559 44.8888 181.639 42.3294C181.879 37.9304 178.76 34.4112 180.759 29.9322C180.759 29.8522 180.679 29.8522 180.679 29.9322C179.72 32.0117 179.88 33.9313 180.279 36.1708C181.159 40.8097 181.479 44.6488 178.52 48.568C178.44 48.6479 178.6 48.7279 178.68 48.6479ZM259.861 53.2869C260.741 50.8874 261.621 48.568 260.901 46.0085C260.821 45.6086 260.261 45.6886 260.261 46.0885C260.101 48.488 260.501 50.9674 259.861 53.2869C259.861 53.3669 259.781 53.2869 259.861 53.2869ZM189.317 21.2942C193.716 21.934 198.515 21.5341 202.434 19.2147C202.594 19.1347 202.514 18.8148 202.274 18.8947C197.955 20.4944 193.956 21.4541 189.397 20.8943C189.157 20.8943 189.157 21.2942 189.317 21.2942ZM28.7141 162.702C35.4325 167.981 44.3105 177.419 43.3507 182.137C42.4709 186.856 39.3516 246.203 39.1117 252.281C39.1117 252.281 55.9878 266.278 79.9824 250.922C79.9824 250.922 71.9042 193.015 73.2639 185.497C74.6236 177.978 76.8631 169.34 73.1039 161.822C73.1039 161.822 73.9038 154.464 70.0646 146.386C70.6245 143.426 69.9846 141.187 67.9051 138.307C65.4257 134.628 61.4266 130.709 57.1076 129.27C57.1076 129.27 67.3453 131.669 69.9047 127.59C72.864 122.791 71.0244 119.832 64.6259 116.472C58.2273 113.113 48.4696 113.993 48.4696 113.993C48.4696 113.993 58.7872 112.313 55.7479 102.876C55.7479 102.876 40.1515 99.5163 30.7136 105.915C21.2758 112.313 11.1981 116.232 20.0761 132.149C20.0761 132.149 15.5971 147.425 24.555 152.784C24.555 152.704 22.0756 157.423 28.7141 162.702ZM174.761 82.4002C178.52 83.36 181.159 81.7604 182.919 79.5209C182.919 79.5209 185.878 88.0789 193.156 95.8371C193.396 96.7969 195.156 104.795 195.236 114.633C196.916 127.51 193.556 130.469 193.556 130.469C193.556 130.469 187.798 138.307 196.756 145.426C206.433 153.104 221.95 184.857 222.67 201.413C222.67 201.413 235.947 151.025 246.024 144.626C255.222 138.787 254.343 134.708 254.343 130.469C254.343 130.469 245.864 122.071 245.624 112.633C244.745 102.796 245.944 95.9171 246.744 90.7183C246.664 90.7183 246.504 90.7983 246.424 90.7983C250.183 85.9994 252.343 82.0003 252.343 82.0003C252.343 82.0003 260.901 90.5584 268.499 81.0405C276.098 71.5227 273.298 55.7663 269.459 53.9267C265.62 52.0072 259.461 53.4468 256.582 55.8463L256.902 51.6073C258.422 45.2087 255.782 38.4103 251.703 33.2115C247.224 27.4528 240.906 22.9738 233.787 21.0542C226.749 19.0547 218.911 19.6146 212.352 22.8938C210.113 24.0136 208.033 25.3733 205.874 26.653C206.273 26.573 206.673 26.413 206.993 26.2531C209.073 25.2933 210.752 24.4135 211.952 23.9336C214.192 22.9738 216.431 22.094 218.751 21.3742C219.95 20.8943 221.15 20.6543 222.35 20.4944C224.669 20.0945 227.069 19.9345 229.548 20.1744C229.628 20.1744 229.628 20.3344 229.548 20.3344C228.188 20.2544 226.909 20.3344 225.629 20.4944C226.909 20.6543 228.268 20.8943 229.548 21.3742C229.628 21.3742 229.548 21.4541 229.548 21.4541C222.91 20.2544 218.351 23.1338 212.672 25.7732C209.633 27.1328 206.513 28.3326 203.234 28.3326C202.594 28.5725 202.034 28.8125 201.395 29.0524C196.916 30.812 188.678 32.8915 186.998 26.7329C185.158 31.6918 186.278 36.4907 187.638 41.6895C187.638 41.8495 187.478 41.9295 187.398 41.7695C185.878 38.3303 184.598 34.1712 184.998 30.3321C184.598 32.0917 184.678 34.0113 185.078 35.7709C185.718 38.9701 186.998 42.1694 187.078 45.4487C187.158 48.408 186.118 51.2873 184.838 53.9267C183.959 55.6863 182.439 57.3659 180.439 57.3659C180.439 57.3659 174.281 52.1671 169.002 56.4062C163.803 60.4852 165.243 80.0008 174.761 82.4002ZM187.478 26.8129C188.997 31.6918 194.756 30.892 200.515 28.8924C199.795 29.0524 199.075 29.2124 198.355 29.2924C194.436 29.7722 190.117 29.5323 187.478 26.8129Z" fill="#E59F61"/>
<path d="M311.29 286.914C311.05 285.394 310.65 283.794 309.851 282.515C308.331 280.195 305.692 279.075 303.372 277.556C299.693 274.996 296.974 271.237 293.774 268.118C290.575 264.919 286.416 262.199 281.937 262.679C277.218 263.159 273.459 267.078 271.219 271.237C270.34 272.917 269.62 274.596 268.82 276.356C267.7 278.995 265.781 278.915 264.261 281.315C264.021 281.715 263.781 282.035 263.541 282.435L263.781 282.515C263.781 282.674 263.781 282.754 263.861 282.914C263.941 283.074 264.101 283.154 264.181 283.154L264.021 283.954C263.701 283.874 263.381 283.634 263.141 283.314C263.141 283.234 263.061 283.154 263.061 283.154C260.422 286.754 258.662 287.793 254.903 290.353C254.823 286.354 253.224 285.074 250.024 283.074C248.105 281.875 244.186 282.115 241.946 282.035C236.987 281.875 232.988 281.315 229.149 280.355C225.63 279.395 225.79 277.796 222.031 276.036C220.991 275.556 216.272 275.316 215.152 274.836C212.513 273.796 209.713 273.077 207.154 274.036C205.874 274.516 204.755 275.396 203.795 276.436C203.475 276.836 200.436 278.195 200.116 278.595C198.356 280.995 196.357 281.475 195.717 284.434C194.997 287.793 187.399 293.552 182.36 293.392C177.241 293.312 176.681 294.272 173.242 290.513C172.042 289.233 168.923 289.953 167.883 288.513C167.083 287.473 166.363 286.434 165.404 285.474C163.244 283.234 160.205 281.475 157.165 282.195C155.006 282.674 153.246 284.354 152.127 286.274C149.807 290.193 149.567 295.152 150.527 299.631C150.687 300.51 150.927 301.47 151.167 302.43C149.967 308.509 152.047 316.667 153.326 319.946C158.365 324.585 178.121 336.182 226.75 336.182C227.149 336.182 235.228 337.942 235.548 337.942C277.938 337.782 300.253 324.185 311.37 318.666C311.29 317.467 314.49 310.268 314.569 309.068C314.969 305.629 314.41 303.23 315.449 299.951C316.489 296.591 311.61 293.632 311.45 290.113C311.61 289.073 311.45 287.953 311.29 286.914ZM160.365 303.31H158.685V302.51H160.365V303.31ZM162.684 292.192L162.524 291.392C163.004 291.313 163.484 290.913 163.724 290.433L164.444 290.753C164.124 291.552 163.484 292.112 162.684 292.192ZM169.803 309.068C169.563 308.269 169.563 307.389 169.723 306.589L170.522 306.749C170.362 307.389 170.362 308.109 170.602 308.828L169.803 309.068ZM185.239 316.347H183V315.547H185.239V316.347ZM193.797 309.068C193.157 308.429 192.597 307.709 192.357 306.829L193.157 306.589C193.397 307.309 193.797 307.949 194.357 308.509L193.797 309.068ZM204.035 315.707L203.795 314.907L205.314 314.507L205.554 315.307L204.035 315.707ZM208.754 294.672L208.514 293.872C209.154 293.712 209.633 293.232 209.953 292.672L210.673 293.072C210.273 293.872 209.553 294.432 208.754 294.672ZM212.033 323.065L209.953 322.105L210.273 321.386L212.353 322.345L212.033 323.065ZM211.233 285.714L211.633 284.994L213.553 285.954L213.153 286.674L211.233 285.714ZM213.553 304.429L213.473 303.63L215.152 303.47L215.232 304.27L213.553 304.429ZM224.03 303.23L223.23 303.07L223.63 301.39L224.43 301.55L224.03 303.23ZM226.99 289.233L226.91 288.433C228.029 288.273 229.069 289.153 229.229 290.193L228.429 290.353C228.349 289.713 227.629 289.153 226.99 289.233ZM229.789 312.588C229.549 312.268 229.149 312.028 228.749 311.948L228.909 311.148C229.549 311.228 230.109 311.628 230.509 312.108L229.789 312.588ZM238.667 324.265L237.947 324.585C237.627 323.865 237.787 323.065 238.267 322.425L238.907 322.905C238.587 323.305 238.507 323.785 238.667 324.265ZM243.386 314.827C242.826 314.587 242.106 314.427 241.466 314.507V313.707C242.266 313.707 242.986 313.787 243.706 314.107L243.386 314.827ZM250.904 309.308L250.184 308.988L250.984 307.069L251.704 307.389L250.904 309.308ZM254.263 322.825L253.463 322.585C253.783 321.786 254.183 321.066 254.743 320.426L255.383 320.986C254.903 321.466 254.503 322.105 254.263 322.825ZM256.903 299.951H254.983V299.151H256.903V299.951ZM260.022 314.507C259.542 313.947 258.982 313.467 258.262 313.147L258.582 312.428C259.382 312.828 260.102 313.307 260.662 314.027L260.022 314.507ZM262.901 325.145C262.421 324.825 261.942 324.665 261.382 324.665L261.462 323.865C262.101 323.945 262.741 324.185 263.301 324.505L262.901 325.145ZM273.139 306.349C273.059 305.949 272.819 305.549 272.499 305.309L272.979 304.669C273.459 305.069 273.859 305.629 273.939 306.269L273.139 306.349ZM274.339 294.112L273.699 293.632C274.179 292.992 274.899 292.592 275.698 292.432L275.858 293.232C275.298 293.232 274.739 293.632 274.339 294.112ZM279.138 282.994C278.738 282.914 278.338 282.994 277.938 283.074L277.618 282.355C278.178 282.115 278.738 282.115 279.298 282.195L279.138 282.994ZM281.697 272.757C281.537 272.197 281.057 271.797 280.577 271.637L280.737 270.837C281.537 271.077 282.257 271.717 282.497 272.517L281.697 272.757ZM295.134 284.034L294.814 283.314C295.454 283.074 296.094 282.674 296.654 282.195L297.213 282.754C296.654 283.314 295.934 283.714 295.134 284.034ZM156.606 129.669C156.206 130.389 155.646 131.109 154.926 131.509C153.966 131.989 152.846 131.909 151.807 131.829C148.527 131.589 145.248 131.429 141.969 131.989C138.69 132.549 135.49 133.749 133.091 135.908C128.292 130.149 127.012 122.231 123.333 115.673C123.573 115.513 123.733 115.433 123.973 115.273C124.453 114.953 124.853 114.713 125.253 114.393C124.933 113.593 124.453 112.873 123.973 112.233C123.333 112.633 122.613 112.953 121.974 113.353C121.654 112.873 121.334 112.393 121.014 111.993C121.494 111.754 121.894 111.594 122.373 111.354C122.613 111.274 122.853 111.114 123.013 111.034C122.373 110.234 121.734 109.434 121.174 108.554C120.614 108.794 120.054 109.114 119.414 109.514C119.014 108.874 118.614 108.234 118.214 107.594C118.854 107.275 119.494 106.875 120.134 106.555C119.734 105.595 119.494 104.555 119.574 103.595C118.694 104.075 117.734 104.635 116.855 105.195C114.855 101.036 115.495 95.8372 116.775 91.1982C118.214 85.9994 120.214 80.9606 122.693 76.1617C122.933 75.7618 123.253 75.2019 123.733 75.2819C124.053 75.2819 124.373 75.6018 124.613 75.8417C125.973 77.2814 127.732 78.4811 129.732 78.7211C131.731 78.961 133.731 78.4012 135.57 77.7613C137.49 77.2014 139.49 76.6416 141.489 77.1215C143.409 77.6013 145.248 79.3609 145.008 81.3605C144.768 83.2001 143.089 84.3998 141.569 85.4396C138.21 87.679 135.091 90.3184 132.531 93.3577C130.772 95.4373 129.172 97.9967 129.172 100.716C129.172 104.635 132.291 107.834 135.65 109.674C139.09 111.514 142.929 112.473 146.288 114.313C149.727 116.153 152.607 119.032 154.606 122.391C155.806 124.791 157.805 127.27 156.606 129.669Z" fill="#88BA89"/>
<path d="M71.7445 155.583C71.6646 156.303 71.5046 157.103 70.9447 157.663C70.3849 158.303 69.665 158.543 69.0252 158.783L66.9456 159.503C65.506 159.982 63.8264 160.622 62.1467 160.622C61.8268 160.622 61.5069 160.622 61.187 160.542C59.5074 160.302 57.4278 158.543 56.9479 156.703C55.5083 157.983 54.1486 158.943 53.3488 159.423L52.9488 158.703C54.7884 157.583 59.1074 154.464 60.7071 149.825L61.5069 150.065C61.187 151.104 60.6271 152.144 60.0672 153.024C61.5069 152.704 62.8666 151.824 63.7464 150.625L64.3862 151.104C63.2665 152.704 61.4269 153.744 59.4274 153.904C58.8675 154.624 58.3076 155.343 57.6678 155.903C57.8277 157.583 59.8273 159.423 61.3469 159.662C63.1865 159.902 65.0261 159.263 66.7057 158.703L68.7852 157.983C69.3451 157.823 69.985 157.583 70.3849 157.103C70.7848 156.703 70.8648 156.063 71.0247 155.423C71.7446 150.065 69.2651 142.786 64.8661 140.947C62.8666 140.147 60.7071 139.907 58.7075 140.307C57.4278 140.547 56.3081 141.187 55.2683 141.827C49.9895 144.946 45.5905 149.345 41.2715 153.584L40.7116 153.024C45.0307 148.785 49.5096 144.306 54.8684 141.107C55.9882 140.467 57.1879 139.827 58.5476 139.507C60.7071 139.027 63.0265 139.267 65.1861 140.147C69.985 142.226 72.5444 149.905 71.7445 155.583ZM57.1079 129.749L57.1879 128.949C53.2688 128.39 47.75 129.589 43.8309 131.909C40.2318 133.988 37.1125 136.868 34.0732 139.667L28.7144 144.546L29.2743 145.106L34.633 140.227C37.5924 137.508 40.7116 134.628 44.2308 132.629C47.4301 130.709 52.8689 129.109 57.1079 129.749ZM36.3127 117.912C38.0723 117.032 40.0718 116.552 41.9914 116.072C43.0311 115.832 44.1509 115.513 45.2706 115.193C46.3903 114.873 47.5101 114.633 48.5499 114.313L48.3899 113.513C47.3501 113.753 46.2304 114.073 45.1106 114.393C43.9909 114.713 42.8712 114.953 41.8314 115.273C39.9118 115.753 37.9123 116.232 35.9927 117.112C31.3538 119.272 28.1545 123.511 25.2752 127.19L20.2363 133.668L20.8762 134.148L25.915 127.67C28.7144 124.071 31.9137 119.992 36.3127 117.912ZM43.431 180.058L42.7112 180.458C44.3108 183.257 47.6701 186.136 50.8693 186.296V185.497C48.07 185.337 44.9507 182.537 43.431 180.058ZM64.6262 186.856L64.3862 187.576C65.1061 187.816 65.9059 187.976 66.7057 187.976C68.4653 187.976 70.3049 187.336 71.5846 186.056L71.0247 185.497C69.3451 187.096 66.7857 187.656 64.6262 186.856ZM66.8657 190.375L66.7057 191.175C66.8657 191.175 67.1056 191.255 67.2656 191.255C68.0654 191.255 68.8652 191.015 69.5051 190.535L69.0252 189.896C68.4653 190.295 67.6655 190.535 66.8657 190.375ZM33.0334 109.994C32.8734 109.194 32.7135 108.314 32.7135 107.434H31.9137C31.9137 108.314 31.9936 109.274 32.2336 110.154L33.0334 109.994ZM34.793 110.474L34.3131 106.395L33.5133 106.475L33.9932 110.554L34.793 110.474ZM39.5119 122.231L40.2318 121.911C39.8318 120.951 39.5919 119.992 39.5119 119.032L38.7121 119.112C38.7921 120.152 39.112 121.191 39.5119 122.231ZM37.1125 123.271L37.8323 122.871C37.4324 122.151 37.0325 121.431 36.8725 120.631L36.0727 120.871C36.2327 121.751 36.6326 122.551 37.1125 123.271ZM55.2683 119.752C54.9484 118.872 54.8684 117.992 54.8684 117.112H54.0686C54.0686 118.072 54.2286 119.032 54.5485 119.992L55.2683 119.752ZM48.5499 134.148C49.1897 134.788 49.7496 135.588 50.1495 136.388L50.8693 135.988C50.3894 135.108 49.8296 134.228 49.1097 133.508L48.5499 134.148ZM50.6294 133.748L49.9895 134.308L50.7893 135.188L51.4292 134.628L50.6294 133.748ZM59.2674 143.186C59.7473 143.986 60.0672 144.946 60.2272 145.906L61.027 145.826C60.947 144.706 60.5471 143.666 59.9872 142.786L59.2674 143.186ZM61.8268 144.066L61.3469 142.706L60.5471 142.946L61.027 144.306L61.8268 144.066ZM48.2299 106.875L48.3899 106.955C48.6298 107.035 48.8698 107.114 49.2697 107.114C50.2295 107.114 51.4292 106.715 52.309 106.235C53.4287 105.675 54.0686 104.875 54.1486 104.075L53.3488 103.995C53.2688 104.475 52.7889 105.115 51.9091 105.515C50.7893 106.155 49.5096 106.395 48.8698 106.235C48.3899 105.115 48.3899 103.835 48.3899 102.556H47.5901C47.5901 103.995 47.5901 105.435 48.2299 106.795V106.875ZM64.4662 123.911C64.5462 123.991 66.3058 125.03 67.9054 125.03C68.3853 125.03 68.7852 124.95 69.1851 124.71C69.985 124.311 70.4648 123.351 70.5448 122.071L69.745 121.991C69.665 123.031 69.3451 123.671 68.7852 123.991C67.6655 124.63 65.586 123.591 64.8661 123.191C64.0663 122.631 64.0663 119.112 64.2263 117.192L63.4265 117.112C63.5064 117.272 62.9466 122.871 64.4662 123.911ZM123.173 379.132C121.813 380.332 120.533 381.372 120.293 381.532L120.613 382.252C120.933 382.092 121.733 381.452 123.733 379.772C128.372 375.853 138.049 367.615 142.128 366.735L141.968 365.935C137.57 366.895 128.212 374.893 123.173 379.132ZM149.727 370.494C148.367 373.534 149.727 374.333 149.887 374.413L150.287 373.694C150.287 373.694 149.407 373.134 150.447 370.814L149.727 370.494ZM138.609 377.533L137.889 377.933C138.209 378.492 138.689 378.972 139.169 379.292L139.649 378.652C139.249 378.332 138.849 377.933 138.609 377.533ZM123.493 369.934L123.813 369.215C122.613 368.655 121.493 367.775 120.613 366.815L119.974 367.375C120.933 368.415 122.213 369.375 123.493 369.934ZM123.733 367.615L124.213 366.975L123.013 366.095L122.533 366.735L123.733 367.615ZM132.131 373.933L132.771 374.493L133.25 373.854L132.611 373.294L132.131 373.933ZM118.534 362.576L119.014 361.936C118.054 361.216 117.254 360.337 116.534 359.377L115.894 359.857C116.614 360.816 117.494 361.776 118.534 362.576ZM142.688 343.061C141.809 341.701 141.569 340.581 141.968 339.781L141.249 339.461C140.769 340.581 141.009 341.941 142.048 343.54C142.128 343.7 142.288 343.86 142.368 344.02C142.928 344.9 143.568 345.86 143.648 346.82H144.448C144.368 345.62 143.728 344.58 143.088 343.62C142.928 343.38 142.848 343.221 142.688 343.061ZM144.528 351.699C144.848 352.978 145.488 354.178 146.367 355.218L147.007 354.658C146.208 353.778 145.648 352.658 145.328 351.459L144.528 351.699ZM107.896 374.253C108.296 373.774 108.696 373.374 109.096 372.974C109.256 372.894 109.416 372.734 109.496 372.494C109.576 372.174 109.416 371.854 109.336 371.774C108.696 370.654 107.656 369.694 106.457 369.135L106.137 369.854C107.176 370.334 108.056 371.214 108.616 372.174C108.616 372.254 108.696 372.254 108.696 372.254L108.616 372.334C108.056 372.734 107.656 373.214 107.256 373.694C106.937 374.093 106.617 374.493 106.217 374.813C105.097 375.773 103.417 376.013 102.058 375.373L101.738 376.093C102.298 376.333 103.017 376.493 103.657 376.493C104.777 376.493 105.897 376.093 106.777 375.373C107.176 375.053 107.496 374.653 107.896 374.253ZM112.775 375.053C119.334 367.295 129.491 355.778 131.171 354.498L130.691 353.858C128.052 355.778 107.736 379.212 106.537 381.692L107.256 382.092C107.576 381.452 109.576 378.892 112.295 375.693C112.775 376.173 113.175 376.573 113.495 377.133C113.735 377.613 113.895 378.253 113.575 378.812C113.415 379.132 113.095 379.372 112.775 379.612C112.055 380.172 111.335 380.732 110.536 381.052C109.656 381.372 108.856 381.372 108.216 381.052L107.816 381.772C108.216 382.012 108.776 382.092 109.336 382.092C109.816 382.092 110.376 382.012 110.856 381.772C111.735 381.452 112.535 380.812 113.255 380.252C113.655 379.932 114.055 379.692 114.295 379.212C114.695 378.492 114.615 377.613 114.215 376.813C113.815 376.093 113.255 375.613 112.775 375.053ZM127.732 376.573L127.332 377.293C128.052 377.773 128.532 378.572 128.612 379.372C128.052 379.612 127.652 379.932 127.172 380.332C126.932 380.492 126.612 380.732 126.372 380.892C125.732 381.292 124.772 381.612 124.053 381.212L123.573 381.852C123.893 382.092 124.373 382.172 124.772 382.172C125.412 382.172 126.052 381.932 126.692 381.532C127.012 381.372 127.252 381.132 127.572 380.892C128.052 380.492 128.532 380.172 129.091 379.932L129.331 379.852V379.532C129.411 378.412 128.772 377.293 127.732 376.573ZM261.461 73.7621C262.341 72.5624 262.981 70.8828 262.661 69.3631C262.501 68.8032 262.181 68.2434 261.941 67.6835C261.221 66.0839 261.141 64.7242 261.781 63.1245C261.861 63.0446 261.621 62.8846 261.541 63.0445C260.981 64.2443 260.661 65.524 260.981 66.8037C261.141 67.6035 261.541 68.2434 261.781 68.9632C262.261 70.6428 261.381 72.0025 260.901 73.4422C260.821 73.9221 261.301 74.002 261.461 73.7621ZM214.592 74.402C215.152 75.6017 216.192 76.5615 217.471 76.8814C218.751 77.2013 221.15 77.4413 221.23 76.1616C221.63 65.524 219.151 60.0852 219.151 60.0852C219.231 62.6446 217.471 72.4024 214.592 74.402ZM225.309 66.4838C225.869 61.6849 227.629 57.3658 230.188 53.2868C230.268 53.2068 230.108 53.0468 230.028 53.1268C226.749 56.886 225.229 61.5249 225.149 66.4838C225.149 66.5637 225.309 66.5637 225.309 66.4838ZM225.229 56.4061C225.229 56.0062 225.309 55.6063 225.469 55.2863C225.549 54.9664 225.789 54.6465 225.869 54.3265C225.869 54.1666 225.629 53.9266 225.469 54.0866C224.99 54.6465 225.07 55.7662 225.229 56.4061C225.229 56.4861 225.149 56.4861 225.229 56.4061ZM257.622 64.9641C259.462 60.885 263.141 58.6456 267.38 57.7658C267.62 57.6858 267.54 57.3658 267.3 57.3658C262.741 57.4458 258.982 60.8051 257.382 64.8841C257.382 65.0441 257.622 65.1241 257.622 64.9641ZM268.5 71.7626C267.22 74.322 265.3 76.5615 262.421 77.2813C260.022 77.9212 257.622 76.9614 255.303 77.7612C255.223 77.7612 255.223 77.9212 255.383 77.9212C258.422 76.9614 261.301 78.3211 264.341 76.8814C266.5 75.8416 268.18 74.162 269.059 72.0025C269.059 71.6826 268.58 71.4426 268.5 71.7626ZM169.882 58.9655C173.561 59.2054 175.961 62.2447 177.4 65.364H177.48C176.281 61.9248 173.961 58.4856 169.882 58.8055C169.802 58.8055 169.802 58.9655 169.882 58.9655ZM177.08 77.2013C177.4 77.2813 177.56 76.8014 177.24 76.7214C175.241 76.0016 172.841 75.0418 171.722 73.2022C170.522 71.2827 170.042 68.9632 169.962 66.8037C169.962 66.7237 169.802 66.7237 169.802 66.8037C169.802 69.2031 170.202 71.9225 171.562 73.9221C172.681 75.6817 174.921 76.6414 177.08 77.2013ZM173.881 69.5231C173.321 68.1634 173.481 66.5637 173.001 65.1241C173.001 65.0441 172.841 65.0441 172.841 65.2041C173.241 66.8837 172.841 68.8032 173.641 70.4029C174.441 71.9225 176.441 72.9623 177.88 73.6821C178.04 73.7621 178.2 73.6021 178.04 73.4422C176.681 72.1625 174.601 71.4426 173.881 69.5231ZM248.664 52.5669C250.024 55.2863 250.744 58.0057 251.623 60.8051C251.703 61.045 252.023 60.965 252.023 60.7251C252.023 57.7658 250.664 54.7265 248.824 52.407C248.664 52.407 248.584 52.487 248.664 52.5669ZM211.473 89.6785C211.393 89.5985 211.233 89.7584 211.313 89.8384C214.272 93.1177 220.511 94.4774 223.87 91.0381C224.11 90.7982 223.79 90.4783 223.55 90.7182C220.271 93.8375 214.272 92.7178 211.473 89.6785ZM226.029 94.7173C226.189 94.7973 226.429 94.6373 226.349 94.3974C225.789 93.4376 225.149 92.7178 224.83 91.598C224.59 90.4783 224.51 89.2786 224.75 88.1588C224.75 87.9988 224.59 87.9189 224.51 88.0788C223.47 90.1584 223.71 93.5176 226.029 94.7173ZM214.832 66.4838C214.832 66.5637 214.992 66.5637 214.992 66.4838C214.912 61.5249 213.472 56.886 210.113 53.1268C210.033 53.0468 209.873 53.1268 209.953 53.2868C212.432 57.2859 214.272 61.6849 214.832 66.4838ZM214.832 56.4061C214.912 56.4861 214.832 56.4861 214.832 56.4061C214.992 55.6862 215.072 54.6465 214.592 54.0066C214.432 53.8467 214.192 54.0066 214.192 54.2466C214.272 54.5665 214.512 54.8864 214.592 55.2063C214.752 55.6862 214.832 56.0861 214.832 56.4061ZM188.518 60.8051C189.398 57.9257 190.117 55.2863 191.477 52.5669C191.477 52.487 191.397 52.407 191.397 52.487C189.558 54.8064 188.198 57.8457 188.198 60.8051C188.118 60.965 188.438 61.045 188.518 60.8051ZM309.13 299.87C306.491 291.632 298.413 284.914 289.855 285.554C288.495 285.634 287.135 285.954 285.936 286.593C282.816 288.273 281.297 291.872 280.097 295.231C276.258 305.549 271.779 315.867 268.42 326.344C290.175 322.425 303.851 316.187 309.93 312.907C310.57 308.508 310.49 304.029 309.13 299.87ZM196.836 282.914C195.316 281.475 193.477 280.195 191.397 280.115C189.718 280.035 188.198 280.595 186.678 281.315C181.639 283.554 177 286.434 172.761 290.033C172.042 290.673 171.322 291.312 171.002 292.192C171.002 292.272 170.922 292.352 170.922 292.512C171.002 292.592 171.082 292.752 171.162 292.832C174.601 296.591 179.64 298.911 184.679 298.991C189.718 299.071 195.316 297.311 199.475 300.11C202.275 301.95 204.034 305.629 206.434 307.709C206.194 305.549 205.874 303.39 205.394 301.23C204.194 294.432 201.795 287.633 196.836 282.914ZM216.671 107.594C206.194 106.635 198.516 101.436 193.157 95.7571C193.237 96.237 194.037 99.1963 194.357 102.795C197.796 105.995 200.915 108.474 204.914 111.034C207.633 112.793 210.593 114.393 213.712 115.113C219.791 116.552 226.189 114.873 231.868 112.233C237.067 109.834 241.706 106.235 245.385 101.916C245.705 96.8768 246.425 92.7977 246.745 90.5583C246.665 90.5583 246.505 90.6382 246.425 90.6382C240.346 98.5564 229.708 108.794 216.671 107.594Z" fill="#D35C26"/>
<path d="M294.812 308.109C296.571 308.828 298.091 310.348 298.731 312.188L297.931 312.428C297.371 310.828 296.091 309.468 294.492 308.828L294.812 308.109ZM263.619 319.866C262.019 320.986 259.94 321.545 258.02 321.386L257.94 322.185C258.18 322.185 258.42 322.185 258.74 322.185C260.66 322.185 262.579 321.625 264.099 320.506C265.858 319.306 267.218 317.386 267.778 315.307L266.978 315.067C266.498 316.987 265.299 318.746 263.619 319.866ZM292.972 314.187C293.772 314.587 294.492 315.067 295.132 315.707L295.692 315.147C294.972 314.507 294.172 313.947 293.292 313.467L292.972 314.187ZM268.738 293.472C267.618 295.072 266.418 296.751 265.858 298.671C265.458 300.27 265.458 301.87 265.538 303.47C265.538 303.949 265.538 304.429 265.538 304.909C265.538 307.629 265.139 310.348 264.339 312.907L265.139 313.147C266.018 310.508 266.418 307.709 266.418 304.909C266.418 304.429 266.418 303.949 266.418 303.47C266.338 301.95 266.338 300.35 266.738 298.911C267.218 297.071 268.338 295.471 269.458 293.952C269.698 293.632 269.937 293.312 270.177 292.912C274.976 286.034 276.576 278.195 274.416 271.877L273.617 272.117C275.696 278.195 274.097 285.714 269.458 292.432C269.218 292.832 268.978 293.152 268.738 293.472ZM287.853 280.195C287.853 280.115 288.013 279.955 288.253 279.795C289.453 279.075 290.733 278.355 292.092 277.955C293.532 277.556 294.972 277.556 296.091 278.035L296.411 277.316C295.132 276.756 293.452 276.676 291.852 277.156C290.413 277.556 289.053 278.355 287.853 279.155C287.533 279.395 287.134 279.715 287.134 280.195C287.134 280.435 287.214 280.675 287.373 280.835L287.853 280.195ZM208.512 51.2873C210.911 50.6474 211.471 47.6081 211.471 47.6081C211.471 47.6081 197.874 46.4084 193.875 47.2082C189.876 48.008 189.156 51.6072 189.156 51.6072C191.395 51.2873 206.112 51.9271 208.512 51.2873ZM300.49 306.669L301.29 306.429C300.65 304.589 299.371 302.99 297.691 302.03L297.291 302.75C298.731 303.55 299.931 304.989 300.49 306.669ZM192.595 65.7639C194.355 65.9239 202.913 64.9641 206.112 65.2041C209.311 65.444 211.471 67.2036 211.951 67.4436C211.951 67.4436 210.591 64.4043 207.312 63.1246C204.033 61.8448 189.236 63.1246 189.236 63.1246C189.236 63.1246 190.836 65.604 192.595 65.7639ZM268.898 276.356C267.778 278.995 266.738 281.715 265.219 284.194C262.419 288.673 258.42 292.032 254.181 295.072C254.101 291.072 253.301 286.993 250.102 284.914C248.182 283.714 245.783 283.474 243.464 283.234C234.825 282.274 226.427 279.955 218.589 276.276C217.469 275.796 216.35 275.236 215.15 274.756C230.906 273.157 250.742 273.716 268.898 276.356ZM229.387 279.475L229.467 280.275C240.504 279.235 251.542 280.115 262.259 282.994L262.499 282.194C251.622 279.315 240.504 278.435 229.387 279.475ZM232.506 297.631C233.226 297.071 233.946 296.431 234.666 295.711C236.265 294.112 237.625 292.272 238.505 290.193L237.785 289.873C236.905 291.792 235.625 293.632 234.106 295.152C233.466 295.791 232.746 296.431 232.026 296.991C231.306 297.631 230.506 298.271 229.787 298.911C228.267 300.35 227.067 302.03 226.187 303.949L226.907 304.269C227.787 302.51 228.907 300.83 230.347 299.471C231.066 298.911 231.786 298.271 232.506 297.631ZM230.267 316.187C231.306 313.547 232.426 310.908 234.266 308.748C236.425 306.189 239.384 304.589 242.184 302.99L249.062 299.151C251.062 298.031 253.061 296.831 253.701 294.672L252.901 294.432C252.341 296.271 250.502 297.391 248.662 298.431L241.784 302.27C238.985 303.79 235.865 305.549 233.626 308.189C231.706 310.428 230.586 313.227 229.547 315.867C228.027 319.706 226.267 324.025 226.187 328.424H226.987C226.987 324.185 228.747 319.946 230.267 316.187ZM254.501 305.229C252.102 305.149 249.702 305.229 247.303 305.549C246.663 305.629 245.863 305.789 245.543 306.509L246.263 306.829C246.423 306.509 246.983 306.349 247.383 306.349C249.702 306.029 252.102 305.949 254.421 306.029L254.501 305.229ZM222.508 294.112C222.908 294.432 223.468 294.592 224.028 294.592C224.508 294.592 224.988 294.432 225.308 294.112L224.748 293.552C224.268 293.952 223.468 293.872 222.988 293.472C222.428 293.072 222.028 292.352 221.629 291.632C220.189 288.673 218.589 285.314 218.829 281.715H218.029C217.869 285.474 219.469 288.993 220.989 292.032C221.389 292.832 221.788 293.632 222.508 294.112ZM206.912 306.509L206.192 306.829C208.192 311.068 212.351 314.187 216.99 314.907C217.949 315.067 218.989 315.147 219.949 315.147C220.909 315.227 221.868 315.227 222.828 315.387C224.348 315.627 226.427 316.267 227.547 317.946L228.187 317.466C226.907 315.547 224.588 314.827 222.908 314.587C221.948 314.427 220.909 314.347 219.949 314.347C218.989 314.267 218.029 314.267 217.07 314.107C212.751 313.467 208.831 310.508 206.912 306.509ZM247.543 65.7639C249.302 65.604 250.982 63.1246 250.982 63.1246C250.982 63.1246 236.185 61.8448 232.906 63.1246C229.627 64.4043 228.267 67.4436 228.267 67.4436C228.747 67.1236 230.906 65.444 234.106 65.2041C237.225 64.9641 245.783 65.8439 247.543 65.7639ZM231.546 51.2873C233.946 51.9271 248.742 51.2873 250.982 51.5272C250.982 51.5272 250.182 47.928 246.263 47.1282C242.344 46.3284 228.667 47.5281 228.667 47.5281C228.667 47.5281 229.147 50.6474 231.546 51.2873ZM248.582 317.386C250.742 316.507 253.141 315.467 254.261 313.307L253.541 312.907C252.501 314.827 250.262 315.787 248.262 316.667C245.943 317.626 243.623 318.826 242.824 321.066C242.504 321.945 242.504 322.825 242.904 323.385L243.543 322.905C243.144 322.345 243.384 321.625 243.543 321.306C244.263 319.386 246.423 318.346 248.582 317.386ZM222.188 84.6396C224.588 84.8796 226.587 85.4394 228.507 86.9591C228.667 87.1191 228.987 86.8791 228.747 86.7192C227.547 85.6794 226.267 84.8796 224.748 84.5597C222.748 84.1597 220.589 84.7196 218.829 83.5199C218.749 83.4399 218.669 83.5999 218.749 83.6799C219.869 84.3997 220.909 84.4797 222.188 84.6396ZM133.249 130.149C132.689 129.589 132.289 129.029 132.209 128.39C132.129 127.99 132.289 127.51 132.449 127.03L132.529 126.87C133.009 125.43 133.249 123.911 133.329 122.391H132.529C132.449 123.831 132.209 125.27 131.809 126.71L131.729 126.87C131.569 127.43 131.409 127.91 131.409 128.55C131.489 129.509 132.129 130.229 132.609 130.709C132.849 131.029 133.329 131.589 134.049 131.589H134.128L134.049 130.789C133.809 130.709 133.489 130.389 133.249 130.149ZM126.69 105.915L125.97 106.315C126.93 107.994 128.37 109.274 130.129 109.994L130.449 109.274C128.85 108.554 127.49 107.354 126.69 105.915ZM130.049 84.3997L129.49 84.9596C126.21 88.0788 123.491 91.918 121.731 96.077L122.451 96.3969C124.211 92.3179 126.85 88.5587 130.049 85.5194L130.609 84.9596C132.129 83.5199 133.729 82.0802 134.208 80.0807L133.409 79.9207C132.929 81.6803 131.489 83.04 130.049 84.3997ZM124.211 112.233C123.251 110.874 122.211 109.514 121.331 108.074C120.212 106.155 119.092 103.195 119.892 100.316L119.092 100.076C118.292 103.195 119.492 106.315 120.612 108.394C121.491 109.914 122.531 111.274 123.491 112.633C124.131 113.513 124.771 114.393 125.41 115.273C127.25 118.072 128.13 120.551 128.05 122.791H128.85C128.93 120.311 127.97 117.672 126.05 114.793C125.49 113.993 124.851 113.033 124.211 112.233ZM139.647 125.03L138.847 125.27C139.167 126.31 140.127 127.19 141.167 127.43L141.327 126.63C140.607 126.47 139.887 125.83 139.647 125.03ZM318.486 301.31C318.486 323.945 311.848 394.409 233.226 399.768C157.883 404.966 150.365 321.306 149.565 308.988C149.405 306.749 150.045 304.509 151.325 302.35C152.204 305.549 153.324 308.988 154.524 312.268C159.563 316.907 178.038 329.784 226.747 329.784C227.147 329.784 227.467 329.784 227.867 329.784C244.583 329.704 258.66 328.104 270.417 325.864C271.057 325.705 271.697 325.625 272.337 325.465H272.417C279.855 323.945 286.174 322.265 291.533 320.506L289.053 318.346L289.613 317.706L292.332 320.186L292.252 320.266C293.212 319.946 294.092 319.626 294.972 319.306C296.171 318.906 297.371 318.426 298.491 318.026C298.571 317.946 298.731 317.946 298.811 317.866C299.131 317.706 299.451 317.626 299.771 317.466C299.851 317.466 299.931 317.386 300.091 317.386C300.57 317.146 301.13 316.987 301.53 316.747C301.69 316.667 301.93 316.587 302.09 316.507C302.33 316.427 302.49 316.347 302.73 316.267C302.97 316.187 303.21 316.027 303.45 315.947C303.61 315.867 303.77 315.787 303.85 315.787C304.25 315.627 304.57 315.467 304.889 315.307C304.969 315.227 305.129 315.227 305.209 315.147C305.529 314.987 305.769 314.907 306.089 314.747C306.169 314.747 306.249 314.667 306.329 314.667C307.689 314.027 308.889 313.387 309.928 312.827C310.568 309.308 310.568 305.709 309.848 302.19C310.008 301.63 310.248 301.07 310.408 300.51C311.448 297.151 311.928 293.552 311.768 290.033C316.007 293.392 318.486 297.071 318.486 301.31ZM303.53 344.9L302.73 344.74C299.611 357.297 292.332 368.735 282.415 377.053L282.895 377.693C292.972 369.215 300.331 357.617 303.53 344.9ZM307.289 325.385H306.489C306.329 328.984 305.929 332.663 305.129 336.182L305.929 336.342C306.729 332.743 307.129 328.984 307.289 325.385ZM151.165 126.23L151.964 126.07C151.724 124.95 150.845 123.991 149.805 123.511L149.485 124.231C150.365 124.551 151.005 125.35 151.165 126.23ZM141.167 120.311C140.767 120.072 140.367 119.832 139.967 119.592C138.208 118.472 136.288 117.272 135.568 115.433L134.848 115.753C135.648 117.912 137.648 119.112 139.567 120.311C139.967 120.551 140.367 120.791 140.767 121.031C142.687 122.311 144.366 123.831 145.726 125.67C146.366 126.47 147.166 127.75 147.006 129.029L147.805 129.109C148.045 127.51 147.086 126.07 146.366 125.19C144.846 123.271 143.166 121.671 141.167 120.311ZM123.491 84.9596C123.731 85.2795 124.131 85.5194 124.531 85.5194C124.691 85.5194 124.771 85.5194 124.931 85.4394L124.611 84.7196C124.451 84.7996 124.211 84.6396 124.131 84.4797C123.971 84.2397 123.891 83.9198 123.891 83.5999C123.811 82.4801 124.051 81.2804 124.451 80.2406L123.731 79.9207C123.251 81.1204 123.011 82.4001 123.091 83.5999C123.171 84.0798 123.251 84.5597 123.491 84.9596ZM187.076 292.592V291.792C184.997 291.792 182.997 292.752 181.638 294.272L182.277 294.832C183.397 293.392 185.237 292.592 187.076 292.592ZM195.714 319.066C195.075 318.426 194.515 317.546 194.035 316.267C193.875 315.947 193.795 315.547 193.715 315.227C193.475 314.507 193.235 313.707 192.915 312.987L192.195 313.307C192.515 314.027 192.755 314.667 192.995 315.467C193.075 315.867 193.235 316.187 193.315 316.587C193.635 317.466 194.195 318.826 195.155 319.706C195.874 320.426 196.834 320.746 197.714 320.746C198.034 320.746 198.434 320.666 198.754 320.586L198.434 319.866C197.554 320.186 196.434 319.706 195.714 319.066ZM184.357 287.633L184.517 286.833C183.157 286.593 181.638 286.833 180.438 287.473L180.838 288.193C181.878 287.553 183.157 287.393 184.357 287.633ZM178.118 66.1639C179.318 62.8846 179.238 59.1255 178.678 55.7662C178.598 55.3663 179.238 55.1264 179.318 55.6063C179.398 55.8462 179.478 56.0062 179.478 56.2461C179.798 54.9664 181.158 54.2466 181.158 54.2466C181.318 54.2466 181.398 54.2466 181.478 54.2466C181.478 53.6067 181.558 52.9669 181.718 52.327C181.798 51.9271 182.357 52.0071 182.437 52.327C183.077 54.8065 183.317 57.3659 184.037 59.7653C184.837 62.4847 186.037 65.1241 187.316 67.6835C187.316 67.7635 187.236 67.8435 187.236 67.7635C186.437 66.9637 185.637 66.0039 184.917 64.9641C185.397 66.2438 185.957 67.4436 186.437 68.5633C188.036 72.4024 191.395 75.3618 195.155 77.0414C198.914 78.801 203.153 79.3608 207.312 79.2809C209.711 79.2809 212.191 79.0409 214.59 79.0409C220.509 79.1209 226.347 80.8005 232.266 81.2804C238.185 81.7603 244.743 80.8005 248.822 76.4815C251.862 73.3622 253.061 68.8832 254.181 64.7242C255.301 60.5651 255.941 55.5263 257.06 51.3672L260.34 53.6867C257.86 55.9262 253.621 80.7205 252.821 86.3992C252.661 87.359 252.341 88.3188 251.942 89.1986C251.062 90.7982 249.782 92.6378 248.102 94.5574C246.263 96.9568 244.503 99.3563 243.064 101.916C242.824 102.316 242.184 101.996 242.424 101.516C242.904 100.396 243.464 99.3563 244.103 98.3965C243.863 98.5565 243.623 98.7964 243.384 98.9564C242.264 100.636 240.984 102.156 239.704 103.755C239.704 103.835 239.624 103.755 239.624 103.675C240.584 102.556 241.304 101.276 242.024 99.9961C240.984 100.796 239.864 101.516 238.665 102.236C236.985 104.315 234.666 105.755 232.186 106.635C232.106 106.635 232.026 106.555 232.106 106.475C234.346 105.595 236.185 104.315 237.785 102.716C232.586 105.675 226.107 107.834 218.509 108.154C200.033 108.794 188.756 94.4774 187.236 92.4778C187.396 93.1177 187.636 93.8375 187.796 94.4774C187.876 94.6373 187.636 94.6373 187.556 94.5574C186.916 93.0377 186.277 91.4381 185.717 89.7585C182.357 82.3202 180.678 69.3631 179.958 62.0848C179.718 63.5245 179.238 64.9641 178.438 66.2438C178.278 66.4838 178.038 66.4038 178.118 66.1639ZM250.342 82.4801C250.662 82.5601 250.982 82.5601 251.302 82.4801C251.462 82.4001 251.462 82.2402 251.302 82.1602C251.062 82.0802 250.742 82.0802 250.502 81.9203C250.182 81.8403 250.022 82.4001 250.342 82.4801ZM248.182 90.5583C248.342 90.7182 248.502 90.7982 248.662 90.8782C248.742 90.8782 248.742 90.8782 248.662 90.7982C248.502 90.7182 248.342 90.5583 248.262 90.3983C248.182 90.3983 248.102 90.4783 248.182 90.5583ZM245.143 84.3997C245.383 84.2397 245.623 84.0798 245.863 83.9998C246.103 83.9198 245.943 83.5199 245.783 83.5999C245.463 83.7598 245.143 83.9198 244.903 84.1597C244.823 84.3197 245.063 84.5597 245.143 84.3997ZM242.904 89.5185C243.144 89.5185 243.384 89.4385 243.703 89.3586C243.863 89.2786 243.783 89.1186 243.623 89.1186C243.384 89.1986 243.144 89.1986 242.904 89.1986C242.744 89.1986 242.744 89.5185 242.904 89.5185ZM239.944 94.8773C240.184 95.1172 240.424 95.3572 240.664 95.5171C240.744 95.5971 240.824 95.4372 240.744 95.3572C240.504 95.1972 240.264 94.9573 240.024 94.7173C239.944 94.7173 239.864 94.7973 239.944 94.8773ZM234.426 91.5181C234.666 91.4381 234.985 91.4381 235.225 91.3581C235.465 91.2781 235.385 90.8782 235.145 90.8782C234.905 90.8782 234.586 90.8782 234.346 90.8782C233.866 90.9582 233.946 91.598 234.426 91.5181ZM233.546 86.3193C233.626 86.0793 233.706 85.8394 233.946 85.6794C234.186 85.5194 233.866 85.1995 233.626 85.3595C233.386 85.5994 233.226 85.8394 233.146 86.1593C233.066 86.4792 233.466 86.6392 233.546 86.3193ZM211.071 102.316C210.591 102.556 210.351 103.195 210.271 103.675C210.191 104.075 210.831 104.235 210.831 103.755C210.911 103.275 211.151 103.035 211.311 102.636C211.471 102.396 211.311 102.236 211.071 102.316ZM217.15 105.675C217.23 105.515 216.99 105.435 216.91 105.515C216.75 105.675 216.59 105.755 216.51 105.915C216.35 106.155 216.35 106.395 216.11 106.475C216.03 106.475 216.11 106.555 216.19 106.555C216.43 106.395 216.67 106.395 216.91 106.235C216.99 106.075 217.07 105.835 217.15 105.675ZM227.227 102.875C227.067 102.556 226.827 102.236 226.667 101.916C226.587 101.756 226.347 101.916 226.427 102.076C226.587 102.396 226.747 102.795 226.907 103.115C226.907 103.355 227.387 103.115 227.227 102.875ZM231.466 98.8764C231.546 99.1163 231.626 99.3563 231.786 99.5962C231.946 99.8362 232.346 99.5962 232.186 99.3563C232.106 99.1163 232.026 98.9564 231.946 98.7164C231.866 98.3965 231.386 98.5564 231.466 98.8764ZM228.907 83.5999C229.227 83.5999 229.547 83.6799 229.867 83.6799C230.027 83.6799 230.027 83.4399 229.867 83.4399C229.547 83.4399 229.227 83.3599 228.907 83.3599C228.827 83.3599 228.827 83.5199 228.907 83.5999ZM219.949 82.3202C219.949 82.4001 220.029 82.4001 220.029 82.4001C220.349 82.3202 220.589 82.3202 220.909 82.2402C221.149 82.0802 221.469 82.0802 221.788 81.9203C222.028 81.7603 222.028 81.3604 221.708 81.2804C221.309 81.2004 220.909 81.3604 220.589 81.5203C220.189 81.6803 220.029 82.0002 219.949 82.3202ZM209.071 81.7603C209.391 81.7603 209.631 81.7603 209.951 81.7603C210.191 81.7603 210.191 81.3604 209.871 81.3604C209.551 81.4404 209.311 81.4404 208.991 81.5203C208.911 81.6003 208.991 81.7603 209.071 81.7603ZM204.832 88.5587C205.312 90.8782 206.112 93.3576 207.312 95.4372C207.312 95.5171 207.232 95.5971 207.232 95.5171C206.512 94.6374 205.952 93.6776 205.552 92.7978C205.712 93.1977 205.792 93.6776 206.032 94.0775C206.672 95.5971 207.552 96.9568 208.831 97.9966C210.991 99.9161 213.87 101.196 216.75 101.276C219.469 101.356 221.549 101.036 222.348 100.556C224.908 99.1163 227.627 97.6767 229.227 95.1972C229.867 94.2374 230.267 93.1177 230.586 91.998C230.746 91.3581 230.826 90.7182 230.746 90.0784C230.746 92.3979 229.307 94.3974 227.467 95.997C227.467 95.997 227.387 95.997 227.387 95.9171C229.867 93.9175 230.826 90.6383 230.027 87.599C229.227 86.0793 227.867 84.8796 226.187 84.3197C226.027 84.2397 225.868 84.2397 225.708 84.1597C220.749 82.6401 215.47 83.5199 210.191 83.9198C209.711 84.0798 209.231 84.2397 208.831 84.4797C206.912 85.6794 205.872 87.7589 205.952 89.9184C205.952 89.9984 205.872 89.9984 205.872 89.9184C205.712 89.0386 205.552 88.1588 205.792 87.359C206.192 86.3192 207.072 85.2795 207.792 84.3997C206.112 85.1995 205.072 86.7991 204.832 88.5587ZM202.593 99.5162C202.833 99.6762 203.073 99.6762 203.393 99.6762C203.473 99.6762 203.473 99.5162 203.393 99.5162C203.153 99.5162 202.913 99.4362 202.673 99.2763C202.593 99.2763 202.513 99.4362 202.593 99.5162ZM202.113 103.275C202.273 103.275 202.433 103.435 202.593 103.435C202.753 103.435 202.913 103.355 203.073 103.275C203.313 103.115 203.153 102.795 202.913 102.875C202.753 102.955 202.673 102.955 202.513 103.035C202.433 103.035 202.353 103.195 202.113 103.275ZM200.993 95.2772C201.073 95.3572 201.233 95.3572 201.233 95.2772C201.233 94.8773 201.313 94.5574 201.473 94.2374C201.633 93.9975 201.873 93.8375 201.873 93.5176C201.873 93.3576 201.713 93.1977 201.473 93.1977C200.673 93.4376 200.753 94.7173 200.993 95.2772ZM198.594 85.0395C198.834 85.1995 199.154 85.3595 199.474 85.3595C199.793 85.3595 199.793 84.9596 199.474 84.8796C199.234 84.8796 199.074 84.7196 198.834 84.6396C198.594 84.3997 198.354 84.7996 198.594 85.0395ZM195.554 81.0405C195.634 81.4404 195.794 81.7603 196.034 82.0802C196.194 82.3202 196.674 82.0802 196.514 81.8403C196.354 81.5203 196.194 81.2804 196.114 80.8805C196.034 80.4806 195.474 80.6405 195.554 81.0405ZM193.955 94.8773C193.715 94.9573 193.395 94.9573 193.155 95.0373C192.915 95.1172 192.995 95.5171 193.235 95.5171C193.475 95.5171 193.795 95.4372 194.035 95.4372C194.435 95.3572 194.355 94.7973 193.955 94.8773ZM192.835 90.6383C192.915 90.7982 193.235 90.8782 193.235 90.6383C193.315 90.2384 193.235 89.7585 193.235 89.2786C193.235 89.1186 192.995 89.0386 192.915 89.1986C192.915 89.6785 192.755 90.2384 192.835 90.6383ZM189.476 84.2397C189.956 84.1597 190.356 83.9998 190.756 83.6799C190.916 83.5199 190.676 83.3599 190.516 83.4399C190.196 83.6799 189.796 83.8398 189.396 83.9198C189.156 83.9998 189.236 84.2397 189.476 84.2397ZM186.597 78.4011C186.996 78.641 187.316 78.9609 187.716 79.2009C188.036 79.4408 188.356 78.8809 188.036 78.641C187.636 78.4011 187.316 78.1611 186.916 77.9212C186.597 77.7612 186.357 78.2411 186.597 78.4011ZM182.917 72.8023C183.077 73.0423 183.317 73.2022 183.637 73.2822C184.117 73.4422 184.357 72.6424 183.877 72.5624C183.717 72.4824 183.557 72.4824 183.477 72.3225C183.077 72.0025 182.597 72.4824 182.917 72.8023ZM158.603 296.351C157.643 294.432 158.283 291.792 160.043 290.433L159.563 289.793C157.483 291.312 156.683 294.352 157.883 296.671L158.603 296.351ZM170.92 292.432C170.92 292.352 171 292.272 171 292.112C171.32 291.232 172.04 290.593 172.76 289.953C174.679 288.353 176.679 286.833 178.758 285.474C180.518 284.354 182.277 283.314 184.117 282.434C184.917 282.035 185.797 281.635 186.597 281.235C188.116 280.595 189.716 279.955 191.315 280.035C193.395 280.195 195.235 281.395 196.754 282.834C197.634 283.714 198.434 284.594 199.234 285.554C199.873 282.594 201.073 279.875 202.833 277.476C203.153 276.996 203.553 276.596 203.873 276.196C196.914 277.476 190.036 279.315 183.637 281.555C182.917 280.035 182.277 278.515 181.558 276.916C180.998 275.636 180.278 274.116 178.918 273.636C177.639 273.157 176.279 273.716 174.999 274.276C174.119 274.676 173.32 275.156 172.52 275.636C172.12 275.876 171.72 276.196 171.64 276.596C171.56 276.996 171.88 277.396 172.2 277.795C173.879 279.795 175.639 281.795 177.319 283.874C173.959 285.234 170.76 286.753 167.801 288.273C168.921 289.793 169.88 291.152 170.92 292.432ZM189.236 296.911L188.916 296.191C188.036 296.591 187.236 296.991 186.517 297.551L186.996 298.191C187.636 297.711 188.436 297.311 189.236 296.911ZM163.882 312.668C165.241 313.547 166.841 314.027 168.441 314.027C168.841 314.027 169.32 314.027 169.72 313.947L169.56 313.147C167.721 313.467 165.801 313.067 164.282 312.028C162.762 310.988 161.562 309.388 161.162 307.549C161.162 307.629 161.002 307.709 160.842 307.709L161.002 306.909C160.842 306.829 160.602 306.909 160.522 307.069C160.362 307.229 160.283 307.549 160.362 307.789C160.922 309.788 162.202 311.548 163.882 312.668ZM175.159 304.749C175.559 305.869 176.039 306.989 176.839 307.949C178.438 309.628 180.918 309.868 183.317 310.028L183.397 309.228C181.158 309.148 178.838 308.908 177.479 307.389C176.759 306.589 176.359 305.549 175.959 304.509C175.559 303.47 175.159 302.43 174.439 301.55C172.68 299.471 169.64 299.151 166.921 298.991V299.79C169.56 299.87 172.28 300.19 173.879 302.03C174.359 302.75 174.759 303.71 175.159 304.749ZM303.45 290.753C306.089 287.713 308.889 284.594 310.888 281.075C311.368 280.195 311.848 278.995 311.288 278.115C311.048 277.716 310.568 277.396 310.088 277.156C309.448 276.836 308.889 276.436 308.249 276.116C307.849 275.876 307.369 275.636 306.889 275.636C306.169 275.716 305.609 276.356 305.209 276.996C303.21 279.955 301.05 283.074 300.011 286.513C299.931 286.833 299.771 287.313 299.611 287.873C300.97 288.753 302.25 289.713 303.45 290.753C303.37 290.832 303.37 290.753 303.45 290.753Z" fill="#86361B"/>
</svg>
