<svg width="83" height="86" viewBox="0 0 83 86" fill="none" xmlns="http://www.w3.org/2000/svg">
<path d="M68.8139 71.8732C74.0673 55.3268 91.8201 15.5874 66.8688 4.53716C52.4862 -1.83243 46.7393 14.8923 44.6576 25.3563C43.7112 30.1135 43.2661 34.7773 42.796 39.5774C42.6347 41.2249 43.3966 45.6197 42.1728 44.5048C40.3073 42.8051 39.2172 38.4436 37.4913 36.26C35.104 33.2393 32.2953 30.8323 28.9179 28.9538C22.8416 25.5741 9.47903 20.5438 4.43632 28.8814C-2.06272 39.627 13.1821 57.3044 20.9828 63.7593C27.5878 69.2248 35.585 74.5825 43.4379 78.0603C44.3719 78.474 51.0425 82.1834 47.7891 78.8983C45.1169 76.2 42.0014 72.8697 40.6162 69.2677C39.2617 65.7455 46.1536 74.4048 49.0206 76.8621C54.6827 81.7152 43.5531 81.5877 39.8571 83.0091" stroke="#1C1C1C" stroke-width="5" stroke-linecap="round"/>
</svg>
