<svg width="372" height="400" viewBox="0 0 372 400" fill="none" xmlns="http://www.w3.org/2000/svg">
<path d="M232.052 216.374C232.052 216.374 256.369 229.041 261.334 230.636C266.299 232.232 312.784 244.498 315.708 243.9C318.632 243.303 321.475 238.142 324.364 235.717C327.252 233.293 340.507 225.912 342.521 226.287C344.536 226.661 346.809 231.287 333.001 237.875C333.001 237.875 345.98 236.823 349.456 236.716C352.932 236.609 363.905 236.127 366.178 237.554C366.241 237.678 371.616 238.267 371.179 241.565C370.742 244.863 367.881 244.97 365.715 247.02C363.549 249.07 362.149 252.565 356.748 255.203C351.346 257.842 343.421 261.202 337.137 261.844C330.159 262.422 323.148 262.47 316.163 261.987C311.635 261.568 272.957 252.672 267.288 253.001C261.619 253.331 243.987 250.327 236.09 246.592C226.623 242.091 193.633 241.788 193.633 241.788C193.633 241.788 232.194 215.92 232.052 216.374Z" fill="#CF856A"/>
<path d="M91.615 78.6463C86.9859 71.7811 81.6042 65.4546 75.57 59.7846C65.2745 50.0774 66.8523 31.6168 81.0432 26.3844C78.788 0.819411 102.552 -2.3361 113.204 1.19379C123.856 4.72368 127.467 11.8904 146.685 8.93103C160.706 6.73822 171.305 36.4036 139.803 42.3491L105.931 88.4159L91.615 78.6463Z" fill="#AF6A5A"/>
<path d="M109.415 70.5523C114.273 65.6854 110.529 56.1029 111.421 53.3486C112.312 50.5942 115.878 49.5869 125.228 45.2459C134.579 40.9048 133.536 32.7665 134.757 27.2131C135.978 21.6598 147.299 20.082 147.299 20.082C147.299 20.082 153.904 39.4251 157.612 49.2928C161.321 59.1604 164.485 76.0967 158.263 85.3672C152.041 94.6376 138.314 94.7624 138.314 94.7624C136.077 101.644 143.502 109.078 143.502 109.078L153.361 110.228C153.361 110.228 147.522 123.545 134.427 128.056C121.333 132.566 105.662 122.422 105.662 122.422C106.188 117.912 100.011 109.943 100.011 109.943C103.06 103.436 102.24 75.6956 102.24 75.6956C102.24 75.6956 87.3534 78.5481 88.4765 66.3895C89.5997 54.231 104.022 60.4886 104.022 60.4886L109.415 70.5523Z" fill="#CF856A"/>
<path d="M142.619 70.7129C140.128 70.7001 137.669 70.1529 135.408 69.1084C135.347 69.0782 135.293 69.036 135.248 68.9844C135.204 68.9328 135.17 68.8728 135.149 68.8079C135.128 68.7431 135.121 68.6747 135.127 68.6069C135.133 68.539 135.153 68.4731 135.185 68.4131C135.249 68.293 135.359 68.2032 135.489 68.1631C135.619 68.1231 135.76 68.136 135.88 68.1991C136.228 68.3774 144.634 72.6026 151.533 66.1668C151.631 66.072 151.762 66.019 151.899 66.019C152.035 66.019 152.166 66.072 152.264 66.1668C152.361 66.2637 152.415 66.3952 152.415 66.5322C152.415 66.6693 152.361 66.8008 152.264 66.8977C149.671 69.381 146.209 70.7504 142.619 70.7129Z" fill="#18253B"/>
<path d="M142.182 76.3465C141.933 76.3597 141.683 76.3597 141.433 76.3465C141.366 76.342 141.3 76.3241 141.239 76.2937C141.179 76.2633 141.125 76.2211 141.081 76.1697C141.037 76.1182 141.004 76.0584 140.983 75.9938C140.962 75.9293 140.955 75.8613 140.961 75.7938C140.975 75.6591 141.04 75.5347 141.143 75.4467C141.246 75.3587 141.378 75.3138 141.514 75.3214C141.567 75.3214 146.612 75.6869 149.616 72.8344C149.713 72.7375 149.845 72.6831 149.982 72.6831C150.119 72.6831 150.25 72.7375 150.347 72.8344C150.396 72.8818 150.435 72.9386 150.462 73.0014C150.489 73.0642 150.502 73.1317 150.502 73.1999C150.502 73.2681 150.489 73.3356 150.462 73.3984C150.435 73.4612 150.396 73.518 150.347 73.5654C147.691 76.0612 143.813 76.3465 142.182 76.3465Z" fill="#18253B"/>
<path d="M130.87 70.9001C130.734 70.9002 130.604 70.8469 130.507 70.7519C130.41 70.6568 130.355 70.5276 130.353 70.3921C130.201 64.6783 135.835 63.4392 135.897 63.4303C136.029 63.4037 136.167 63.4298 136.28 63.5031C136.393 63.5764 136.473 63.691 136.503 63.8225C136.53 63.9571 136.503 64.0968 136.428 64.2117C136.353 64.3266 136.236 64.4076 136.102 64.4376C135.906 64.4376 131.253 65.5251 131.378 70.3653C131.38 70.4332 131.369 70.5009 131.345 70.5646C131.321 70.6282 131.285 70.6865 131.239 70.7362C131.193 70.7859 131.137 70.8259 131.075 70.854C131.013 70.8822 130.946 70.8978 130.879 70.9001H130.87Z" fill="#18253B"/>
<path d="M148.859 55.3547C150.357 57.7526 145.873 61.8975 145.356 62.361C145.305 62.4104 145.245 62.4492 145.18 62.4752C145.114 62.5012 145.043 62.5139 144.973 62.5126C144.891 62.5129 144.81 62.4965 144.735 62.4643C144.66 62.4321 144.592 62.3848 144.536 62.3254C144.429 62.2156 144.369 62.0685 144.369 61.9153C144.369 61.7622 144.429 61.6151 144.536 61.5053C145.944 60.2306 148.61 57.2088 147.834 55.9698C146.604 53.9998 140.525 48.2236 140.462 48.1702C140.408 48.1163 140.366 48.0524 140.336 47.9821C140.307 47.9117 140.292 47.8363 140.292 47.7601C140.292 47.684 140.307 47.6085 140.336 47.5382C140.366 47.4678 140.408 47.4039 140.462 47.3501C140.572 47.2434 140.719 47.1837 140.872 47.1837C141.025 47.1837 141.173 47.2434 141.282 47.3501C141.585 47.564 147.576 53.26 148.859 55.3547ZM141.906 40.0496H142.085C142.206 40.0505 142.325 40.0131 142.424 39.9428C142.523 39.8724 142.598 39.7725 142.637 39.6574C142.691 39.4881 144.072 35.5838 150.125 36.9833C150.275 37.0155 150.431 36.9878 150.561 36.9062C150.691 36.8246 150.784 36.6956 150.82 36.5465C150.837 36.4721 150.84 36.3952 150.827 36.3199C150.814 36.2447 150.787 36.1727 150.746 36.1081C150.706 36.0435 150.653 35.9876 150.59 35.9435C150.528 35.8994 150.458 35.868 150.383 35.8512C143.252 34.2111 141.55 39.2296 141.541 39.283C141.511 39.3571 141.498 39.4365 141.5 39.5162C141.503 39.5958 141.522 39.6741 141.556 39.746C141.591 39.818 141.639 39.8821 141.7 39.9343C141.76 39.9866 141.83 40.0258 141.906 40.0496ZM131.629 45.3356C131.703 45.3525 131.78 45.3547 131.855 45.3419C131.93 45.3292 132.002 45.3017 132.067 45.2612C132.131 45.2206 132.187 45.1677 132.231 45.1055C132.275 45.0434 132.307 44.9731 132.324 44.8988C132.341 44.8244 132.343 44.7475 132.33 44.6723C132.318 44.5972 132.29 44.5252 132.25 44.4607C132.209 44.3961 132.156 44.3402 132.094 44.296C132.032 44.2519 131.961 44.2205 131.887 44.2035C124.756 42.5723 123.053 47.5908 123.045 47.6442C123.021 47.7156 123.012 47.791 123.017 47.866C123.023 47.941 123.043 48.0142 123.077 48.0813C123.111 48.1484 123.158 48.2081 123.215 48.257C123.272 48.3059 123.338 48.3431 123.41 48.3663H123.588C123.71 48.3672 123.829 48.3298 123.928 48.2594C124.027 48.189 124.102 48.0892 124.141 47.9741C124.203 47.8314 125.576 43.9361 131.629 45.3356ZM131.031 50.8087C130.697 50.7704 130.359 50.8321 130.06 50.986C129.76 51.1399 129.513 51.379 129.35 51.6731C129.186 51.9673 129.114 52.3033 129.141 52.6387C129.168 52.9741 129.295 53.2939 129.504 53.5576C129.713 53.8214 129.995 54.0173 130.315 54.1205C130.636 54.2238 130.979 54.2299 131.303 54.138C131.627 54.046 131.916 53.8602 132.134 53.604C132.352 53.3478 132.49 53.0326 132.529 52.6984C132.555 52.4759 132.537 52.2505 132.476 52.0351C132.415 51.8196 132.311 51.6183 132.172 51.4428C132.033 51.2672 131.861 51.1208 131.665 51.012C131.469 50.9032 131.254 50.8341 131.031 50.8087ZM151.052 45.7188C150.718 45.6806 150.379 45.7423 150.08 45.8962C149.781 46.05 149.534 46.2891 149.37 46.5833C149.207 46.8774 149.134 47.2134 149.162 47.5489C149.189 47.8843 149.315 48.204 149.524 48.4678C149.733 48.7315 150.016 48.9274 150.336 49.0307C150.656 49.134 151 49.1401 151.324 49.0482C151.647 48.9562 151.937 48.7704 152.155 48.5142C152.373 48.258 152.51 47.9428 152.549 47.6086C152.608 47.1596 152.486 46.7058 152.21 46.3466C151.934 45.9873 151.527 45.752 151.079 45.6921L151.052 45.7188Z" fill="#18253B"/>
<path d="M155.989 61.2551C155.893 61.2552 155.8 61.2296 155.719 61.1809C155.637 61.1323 155.57 61.0624 155.525 60.9788C154.9 59.8017 153.918 58.8533 152.72 58.2702C151.522 57.6871 150.169 57.4994 148.857 57.7341C148.732 57.7428 148.607 57.7053 148.507 57.6285C148.407 57.5517 148.338 57.441 148.314 57.3172C148.29 57.1934 148.312 57.065 148.376 56.9563C148.44 56.8476 148.541 56.766 148.661 56.7269C148.715 56.7269 153.947 55.7553 156.425 60.4974C156.458 60.5569 156.478 60.6223 156.485 60.6898C156.492 60.7572 156.485 60.8254 156.465 60.8902C156.445 60.955 156.412 61.0151 156.369 61.0671C156.325 61.119 156.272 61.1617 156.211 61.1927C156.144 61.2336 156.067 61.2552 155.989 61.2551Z" fill="#18253B"/>
<path d="M138.316 94.7802C141.034 103.774 145.384 108.811 145.384 108.811L153.407 110.246C153.407 110.246 147.568 123.563 134.474 128.074C121.379 132.584 105.709 122.44 105.709 122.44C106.235 117.93 99.3711 109.764 99.3711 109.764C100.904 106.493 102.366 90.3144 102.33 85.697C119.258 96.1976 138.316 94.7802 138.316 94.7802Z" fill="#AF6A5A"/>
<path d="M84.9997 107.902C84.9997 107.902 91.9169 115.737 94.805 117.939C109.62 129.135 108.675 146.116 101.526 157.16L42.2399 236.03L42.1597 236.146C34.0837 249.918 22.986 250.773 18.6003 250.479C11.2731 250.033 14.6426 246.86 11.4692 240.442C7.76108 230.869 -0.29705 232.928 3.92812 223.033L0.273438 225.422C2.8228 211.499 21.1319 163.551 49.6473 124.125C58.1066 112.314 84.9997 107.902 84.9997 107.902Z" fill="#FFAC67"/>
<path d="M310.201 267.843C310.201 267.843 253.348 265.062 214.724 251.504C214.724 251.504 205.516 248.554 201.354 239.916C200.308 238.592 199.358 237.195 198.51 235.735L198.43 235.62L139.055 156.723C131.924 145.679 130.961 128.698 145.776 117.502C148.691 115.3 155.581 107.474 155.581 107.474C155.581 107.474 182.474 111.859 190.933 123.688C213.664 155.118 229.896 191.933 236.84 212.64C274.349 222.445 315.603 235.557 315.603 235.557C316.084 246.254 314.025 257.031 310.201 267.843Z" fill="#FFAC67"/>
<path d="M138.526 106.965L150.64 108.499C150.185 238.81 135.985 286.018 93.5195 107.527L101.916 106.957C116.437 112.314 129.05 113.259 138.526 106.965Z" fill="#FF6B5B"/>
<path d="M48.5681 399.465C48.5681 399.465 47.0795 324.518 58.4358 253.376C59.0776 201.783 51.4206 168.694 53.6758 139.867C55.2892 119.16 63.695 117.128 63.7484 116.495C76.3526 105.994 100.09 106.689 100.09 106.689C114.433 131.648 125.655 187.93 133.909 216.152C139.374 187.877 142.28 131.167 140.149 106.574C140.149 106.574 185.485 103.846 190.958 135.731C190.334 164.496 201.931 319.731 194.613 399.51L48.5681 399.465Z" fill="#FFAC67"/>
<path d="M101.934 106.529L106.739 120.622L91.3711 106.966C93.3143 102.731 96.7194 99.0946 101.934 96.1887V106.529ZM138.481 106.529C139.693 110.986 140.371 116.798 140.807 123.216L149.079 106.966C147.136 102.731 143.731 99.0946 138.517 96.1887L138.481 106.529Z" fill="#FFAC67"/>
<path d="M154.973 116.459L146.879 121.87L154.545 127.218C154.634 127.28 154.703 127.365 154.746 127.465C154.788 127.564 154.802 127.673 154.786 127.78L139.802 226.073C139.784 226.201 139.723 226.319 139.629 226.409C139.535 226.498 139.414 226.552 139.285 226.563H139.231C139.112 226.563 138.996 226.526 138.899 226.457C138.802 226.389 138.728 226.292 138.687 226.18C132.082 207.942 90.41 134.18 89.9911 133.476C89.9227 133.354 89.9013 133.212 89.9309 133.075C89.9604 132.939 90.0389 132.818 90.1515 132.736L99.5645 125.605L83.8048 118.474C83.7296 118.437 83.6624 118.386 83.6073 118.323C83.5522 118.261 83.5102 118.187 83.4839 118.108C83.4621 118.029 83.4572 117.946 83.4695 117.864C83.4818 117.783 83.511 117.705 83.5553 117.636L90.5437 106.458C90.6288 106.336 90.7576 106.251 90.9034 106.221C91.0493 106.191 91.201 106.219 91.3271 106.298C91.4532 106.377 91.544 106.502 91.5807 106.646C91.6174 106.79 91.5972 106.943 91.5242 107.073L84.8834 117.662L100.928 124.927C101.021 124.967 101.102 125.031 101.161 125.112C101.221 125.194 101.258 125.29 101.267 125.391C101.279 125.49 101.265 125.591 101.226 125.684C101.187 125.776 101.124 125.856 101.044 125.917L91.239 133.315C94.6084 139.296 130.71 203.449 138.964 223.746L153.583 127.967L145.56 122.333C145.481 122.281 145.416 122.211 145.371 122.127C145.326 122.044 145.303 121.951 145.303 121.856C145.303 121.762 145.326 121.669 145.371 121.585C145.416 121.502 145.481 121.431 145.56 121.379L153.912 115.799L148.947 107.028C148.909 106.963 148.885 106.89 148.875 106.815C148.865 106.74 148.87 106.664 148.89 106.591C148.91 106.518 148.944 106.45 148.991 106.39C149.037 106.331 149.095 106.281 149.161 106.244C149.227 106.205 149.3 106.181 149.376 106.171C149.452 106.161 149.529 106.166 149.602 106.186C149.676 106.206 149.745 106.24 149.806 106.287C149.866 106.333 149.917 106.391 149.955 106.458L155.187 115.692C155.258 115.823 155.276 115.976 155.236 116.119C155.196 116.262 155.102 116.384 154.973 116.459Z" fill="#18253B"/>
<path d="M142.666 277.96C142.666 278.301 142.565 278.633 142.376 278.916C142.187 279.199 141.918 279.42 141.604 279.55C141.289 279.68 140.943 279.714 140.61 279.648C140.276 279.581 139.969 279.417 139.729 279.177C139.488 278.936 139.324 278.63 139.258 278.296C139.192 277.962 139.226 277.616 139.356 277.302C139.486 276.988 139.707 276.719 139.989 276.53C140.272 276.341 140.605 276.24 140.945 276.24C141.401 276.242 141.837 276.424 142.159 276.746C142.481 277.069 142.663 277.505 142.666 277.96ZM140.963 305.745C140.623 305.745 140.29 305.846 140.007 306.035C139.724 306.224 139.504 306.493 139.374 306.807C139.243 307.121 139.209 307.467 139.276 307.801C139.342 308.135 139.506 308.441 139.747 308.682C139.987 308.922 140.294 309.086 140.627 309.153C140.961 309.219 141.307 309.185 141.621 309.055C141.936 308.924 142.204 308.704 142.393 308.421C142.583 308.138 142.683 307.806 142.683 307.465C142.683 307.009 142.502 306.571 142.18 306.249C141.857 305.926 141.419 305.745 140.963 305.745ZM140.58 339.778C140.24 339.778 139.907 339.879 139.624 340.068C139.341 340.257 139.121 340.526 138.99 340.84C138.86 341.154 138.826 341.5 138.892 341.834C138.959 342.168 139.123 342.474 139.363 342.715C139.604 342.955 139.91 343.119 140.244 343.186C140.578 343.252 140.924 343.218 141.238 343.088C141.552 342.958 141.821 342.737 142.01 342.454C142.199 342.171 142.3 341.839 142.3 341.498C142.293 341.047 142.109 340.616 141.787 340.299C141.465 339.982 141.031 339.805 140.58 339.805V339.778Z" fill="#18253B"/>
<path d="M66.2883 210.785C66.1566 210.786 66.0287 210.741 65.9264 210.658C65.824 210.575 65.7535 210.46 65.7267 210.331L58.5956 177.349C58.5792 177.275 58.5777 177.198 58.591 177.123C58.6043 177.048 58.6322 176.977 58.6732 176.913C58.7141 176.848 58.7673 176.793 58.8298 176.749C58.8922 176.706 58.9625 176.675 59.0369 176.659C59.1112 176.642 59.188 176.641 59.263 176.654C59.3379 176.667 59.4095 176.695 59.4737 176.736C59.5378 176.777 59.5933 176.83 59.6368 176.893C59.6804 176.955 59.7113 177.026 59.7277 177.1L66.9033 210.081C66.9329 210.232 66.9031 210.389 66.82 210.518C66.737 210.648 66.6072 210.74 66.4576 210.776L66.2883 210.785Z" fill="#18253B"/>
<path d="M212.146 271.667H134.952C132.858 271.66 130.852 270.825 129.373 269.343C127.893 267.862 127.059 265.855 127.055 263.761L142.948 152.337C143.381 149.551 144.814 147.019 146.98 145.214C149.146 143.409 151.896 142.455 154.714 142.532H228.281C230.374 142.537 232.381 143.37 233.863 144.85C235.344 146.33 236.18 148.336 236.187 150.43L220.044 263.761C220.039 265.855 219.206 267.862 217.726 269.343C216.246 270.825 214.24 271.66 212.146 271.667Z" fill="#18253B"/>
<path d="M207.797 151.018H176.296C175.814 151.016 175.339 150.912 174.901 150.711C174.464 150.51 174.074 150.217 173.759 149.853C173.444 149.489 173.211 149.062 173.075 148.6C172.939 148.138 172.903 147.653 172.971 147.176L174.005 140.045C174.119 139.246 174.516 138.515 175.126 137.987C175.735 137.458 176.514 137.166 177.321 137.166H208.831C209.312 137.167 209.788 137.272 210.225 137.473C210.662 137.674 211.051 137.966 211.365 138.331C211.68 138.695 211.912 139.122 212.047 139.584C212.182 140.046 212.216 140.531 212.147 141.008L211.122 148.139C211.008 148.939 210.609 149.671 209.998 150.2C209.387 150.729 208.605 151.02 207.797 151.018Z" fill="#FF6B5B"/>
<path d="M137.823 268.351C136.768 268.406 135.718 268.164 134.793 267.652C133.868 267.139 133.105 266.378 132.591 265.454C131.841 264.097 131.568 262.528 131.815 260.997L131.869 260.623C136.041 230.449 145.828 159.584 146.63 153.193C147.647 145.072 157.684 145.982 157.782 145.991C157.857 145.997 157.931 146.019 157.999 146.055C158.066 146.09 158.125 146.139 158.174 146.198C158.222 146.257 158.258 146.325 158.279 146.398C158.301 146.471 158.307 146.548 158.299 146.623C158.292 146.699 158.27 146.773 158.235 146.84C158.199 146.908 158.15 146.967 158.091 147.015C158.032 147.064 157.964 147.1 157.891 147.121C157.818 147.142 157.741 147.149 157.666 147.14C157.3 147.14 148.654 146.338 147.78 153.38C146.978 159.78 137.182 230.654 133.01 260.828L132.956 261.202C132.753 262.472 132.979 263.774 133.598 264.901C134.053 265.705 134.739 266.354 135.567 266.764C136.395 267.174 137.327 267.327 138.242 267.201C138.318 267.196 138.394 267.207 138.466 267.232C138.537 267.256 138.603 267.295 138.66 267.346C138.716 267.397 138.762 267.458 138.794 267.526C138.827 267.595 138.845 267.669 138.849 267.745C138.853 267.821 138.843 267.897 138.818 267.97C138.794 268.042 138.755 268.108 138.704 268.165C138.654 268.223 138.593 268.269 138.524 268.303C138.455 268.336 138.381 268.356 138.305 268.36L137.823 268.351Z" fill="#FF6B5B"/>
<path d="M116.172 235.423C116.172 235.423 119.738 239.747 127.662 238.811C140.846 237.028 150.384 233.623 160.501 229.79C166.464 227.677 164.958 222.801 163.077 223.104C162.186 223.327 166.357 222.008 167.204 221.714C174.585 218.817 171.064 213.691 167.908 214.003C173.961 212.746 172.998 206.07 169.04 206.578C173.266 205.205 172.133 199.126 165.6 200.026C161.945 200.214 132.378 206.685 132.378 206.685L135.319 205.794L136.71 196.051C128.278 199.216 120.56 204.028 114.006 210.206C112.839 211.33 111.927 212.692 111.332 214.199L116.172 235.423Z" fill="#CF856A"/>
<path d="M118.346 239.372C118.346 239.372 63.3835 254.187 22.4689 253.153C22.4689 253.153 1.54808 253.207 0.0683837 231.065C-1.41132 208.923 21.6132 209.983 21.6132 209.983C62.4208 207.167 113.631 206.988 113.631 206.988C117.348 217.016 118.694 227.9 118.346 239.372Z" fill="#FFAC67"/>
<path d="M139.944 211.918C139.816 211.914 139.695 211.863 139.602 211.776C139.51 211.688 139.453 211.568 139.443 211.441C139.433 211.314 139.471 211.187 139.548 211.086C139.626 210.985 139.738 210.916 139.864 210.893L168.95 206.07C169.019 206.052 169.092 206.049 169.162 206.061C169.233 206.072 169.3 206.099 169.36 206.138C169.42 206.177 169.472 206.228 169.511 206.288C169.55 206.348 169.576 206.415 169.588 206.486C169.6 206.557 169.597 206.629 169.579 206.698C169.562 206.768 169.53 206.833 169.486 206.889C169.442 206.946 169.386 206.992 169.323 207.026C169.26 207.06 169.191 207.081 169.119 207.086L140.033 211.909L139.944 211.918Z" fill="#18253B"/>
<path d="M144.488 217.899C144.364 217.898 144.245 217.852 144.151 217.77C144.058 217.688 143.997 217.576 143.98 217.453C143.97 217.386 143.974 217.318 143.99 217.252C144.007 217.187 144.036 217.125 144.077 217.071C144.118 217.017 144.169 216.972 144.227 216.938C144.285 216.904 144.35 216.882 144.417 216.873L167.825 213.495C167.892 213.485 167.961 213.489 168.027 213.505C168.093 213.522 168.155 213.551 168.209 213.592C168.264 213.632 168.31 213.683 168.345 213.741C168.38 213.8 168.403 213.865 168.413 213.932C168.423 213.999 168.42 214.068 168.403 214.134C168.387 214.2 168.357 214.262 168.317 214.316C168.276 214.371 168.225 214.417 168.167 214.452C168.108 214.487 168.044 214.51 167.976 214.52L144.56 217.89L144.488 217.899Z" fill="#18253B"/>
<path d="M147.843 226.028C147.715 226.025 147.593 225.974 147.501 225.886C147.408 225.798 147.351 225.679 147.341 225.552C147.331 225.424 147.369 225.298 147.447 225.197C147.524 225.095 147.637 225.026 147.762 225.003L162.996 222.596C163.062 222.585 163.13 222.587 163.196 222.603C163.261 222.618 163.323 222.647 163.377 222.687C163.431 222.727 163.477 222.777 163.511 222.835C163.545 222.893 163.567 222.957 163.576 223.024C163.596 223.157 163.564 223.294 163.486 223.404C163.408 223.514 163.289 223.588 163.157 223.612L147.967 226.019L147.843 226.028Z" fill="#18253B"/>
<path d="M333.572 237.785C333.572 238.071 333.884 244.792 326.441 248.66C326.303 248.73 326.144 248.742 325.998 248.696C325.851 248.649 325.729 248.547 325.656 248.411C325.621 248.343 325.599 248.269 325.593 248.192C325.586 248.116 325.595 248.039 325.618 247.966C325.641 247.894 325.678 247.826 325.728 247.768C325.777 247.709 325.838 247.661 325.906 247.626C332.654 244.123 332.422 238.097 332.404 237.821C332.397 237.666 332.451 237.515 332.554 237.4C332.658 237.285 332.802 237.215 332.957 237.206C333.036 237.201 333.115 237.213 333.19 237.239C333.264 237.266 333.332 237.308 333.39 237.363C333.448 237.417 333.493 237.482 333.525 237.555C333.556 237.628 333.572 237.706 333.572 237.785ZM366.74 237.438L347.344 240.477L348.672 237.393C348.703 237.324 348.719 237.249 348.721 237.173C348.722 237.097 348.708 237.021 348.68 236.951C348.652 236.88 348.61 236.816 348.556 236.762C348.503 236.708 348.439 236.665 348.369 236.636C348.228 236.576 348.07 236.574 347.928 236.631C347.786 236.688 347.672 236.798 347.611 236.939L341.211 251.709C341.128 251.8 341.078 251.916 341.069 252.039L339.286 256.255C339.247 256.342 339.231 256.438 339.238 256.533C339.246 256.628 339.278 256.72 339.33 256.799C339.382 256.879 339.454 256.945 339.538 256.99C339.622 257.035 339.716 257.058 339.812 257.057C339.925 257.058 340.036 257.025 340.131 256.964C340.226 256.902 340.301 256.813 340.347 256.71L342.129 252.618C343.698 252.404 349.974 251.504 355.251 250.247C358.531 249.463 359.805 249.917 360.278 250.247C360.471 250.372 360.608 250.567 360.661 250.791C360.67 250.94 360.736 251.081 360.846 251.184C360.955 251.287 361.099 251.344 361.25 251.343C361.326 251.343 361.402 251.328 361.472 251.298C361.542 251.269 361.606 251.225 361.659 251.17C361.713 251.115 361.754 251.05 361.782 250.979C361.809 250.908 361.822 250.831 361.82 250.755C361.798 250.48 361.716 250.214 361.58 249.974C361.445 249.734 361.259 249.526 361.036 249.365C359.921 248.473 357.889 248.411 354.974 249.106C350.33 250.22 344.91 251.04 342.664 251.361L344.162 247.903C345.597 247.671 357.47 245.737 361.437 244.881C362.792 244.587 363.817 244.676 364.387 245.139C364.545 245.269 364.674 245.431 364.766 245.613C364.859 245.796 364.912 245.996 364.922 246.2C364.922 246.354 364.983 246.501 365.092 246.61C365.2 246.718 365.348 246.779 365.501 246.779C365.655 246.779 365.803 246.718 365.911 246.61C366.02 246.501 366.081 246.354 366.081 246.2C366.07 245.825 365.98 245.457 365.817 245.119C365.654 244.781 365.422 244.481 365.136 244.239C364.245 243.526 362.934 243.348 361.196 243.74C357.631 244.506 347.718 246.138 344.714 246.628L346.836 241.716L366.963 238.57C367.116 238.546 367.253 238.463 367.344 238.338C367.435 238.214 367.473 238.058 367.449 237.906C367.426 237.753 367.342 237.616 367.218 237.525C367.093 237.434 366.938 237.396 366.785 237.42L366.74 237.438ZM196.102 388.991C184.871 390.489 159.493 390.872 132.885 390.774C135.961 347.845 136.023 270.321 136.023 269.483C136.023 269.329 135.962 269.182 135.853 269.073C135.745 268.965 135.597 268.904 135.444 268.904C135.29 268.904 135.143 268.965 135.034 269.073C134.925 269.182 134.864 269.329 134.864 269.483C134.864 270.321 134.802 347.925 131.718 390.765C91.6052 390.631 49.1217 389.455 48.4086 389.437C48.2549 389.437 48.1076 389.498 47.9989 389.607C47.8903 389.715 47.8292 389.863 47.8292 390.016C47.8292 390.17 47.8903 390.317 47.9989 390.426C48.1076 390.535 48.2549 390.596 48.4086 390.596C49.1217 390.596 91.5428 391.79 131.673 391.924C131.477 394.598 131.272 397.04 131.049 399.367C131.037 399.52 131.085 399.672 131.183 399.791C131.281 399.909 131.422 399.984 131.575 400H131.628C131.773 399.998 131.911 399.944 132.018 399.847C132.125 399.75 132.193 399.617 132.208 399.474C132.431 397.121 132.636 394.589 132.832 391.933H139.054C163.38 391.933 185.825 391.487 196.227 390.105C196.378 390.083 196.514 390.003 196.606 389.881C196.698 389.759 196.738 389.606 196.717 389.455C196.691 389.315 196.614 389.189 196.5 389.104C196.386 389.018 196.244 388.978 196.102 388.991ZM108.328 240.816C108.323 240.84 108.323 240.864 108.328 240.887L55.4149 251.967C55.2577 251.983 55.113 252.06 55.0127 252.182C54.9124 252.304 54.8647 252.461 54.8801 252.618C54.8954 252.775 54.9726 252.92 55.0947 253.02C55.2167 253.121 55.3736 253.168 55.5308 253.153H55.6467L118.472 239.996C118.549 239.984 118.623 239.955 118.69 239.913C118.756 239.871 118.813 239.816 118.857 239.752C118.902 239.687 118.933 239.614 118.948 239.537C118.963 239.46 118.963 239.38 118.946 239.304C118.93 239.227 118.898 239.154 118.853 239.09C118.808 239.026 118.75 238.971 118.683 238.93C118.616 238.889 118.541 238.862 118.464 238.851C118.386 238.839 118.307 238.844 118.231 238.864L109.656 240.647C112.954 231.733 107.686 212.711 106.197 207.665L113.64 207.558C113.793 207.554 113.938 207.49 114.045 207.38C114.151 207.27 114.211 207.123 114.211 206.97C114.212 206.893 114.198 206.817 114.168 206.746C114.139 206.675 114.095 206.611 114.04 206.557C113.985 206.504 113.92 206.462 113.848 206.435C113.776 206.408 113.699 206.396 113.622 206.4L105.841 206.507V206.453C105.799 206.334 105.719 206.231 105.614 206.161C105.508 206.091 105.383 206.057 105.256 206.065C105.13 206.073 105.01 206.123 104.914 206.206C104.818 206.289 104.752 206.401 104.726 206.524L36.8919 207.487C36.7389 207.489 36.5929 207.551 36.4847 207.659C36.3766 207.768 36.3148 207.914 36.3125 208.067C36.3148 208.22 36.3766 208.366 36.4847 208.474C36.5929 208.582 36.7389 208.644 36.8919 208.646L104.994 207.683C106.313 212.149 112.054 232.553 108.328 240.816ZM67.5467 319.677L70.1495 292.534C70.1129 292.453 70.0947 292.365 70.096 292.276C70.1059 292.183 70.1397 292.094 70.1941 292.017L71.0855 283.014C71.09 282.94 71.1093 282.867 71.1424 282.8C71.1754 282.733 71.2216 282.673 71.278 282.624C71.3345 282.575 71.4001 282.538 71.4711 282.514C71.5422 282.491 71.6171 282.482 71.6916 282.488L111.545 284.396C111.697 284.405 111.839 284.472 111.942 284.584C112.045 284.695 112.101 284.842 112.098 284.993L111.135 320.39C111.133 320.54 111.072 320.683 110.965 320.788C110.859 320.893 110.715 320.952 110.565 320.952L68.1528 320.31C68.0727 320.309 67.9936 320.291 67.9201 320.259C67.8467 320.227 67.7804 320.181 67.725 320.123C67.6656 320.065 67.619 319.996 67.5883 319.919C67.5576 319.842 67.5434 319.76 67.5467 319.677ZM71.3796 291.768L110.601 293.969C110.633 293.964 110.666 293.964 110.699 293.969L110.93 285.501L72.1997 283.674L71.3796 291.768ZM68.759 319.16L109.968 319.784L110.636 295.102C110.604 295.106 110.571 295.106 110.538 295.102L71.3172 292.909L68.759 319.16ZM150.865 319.677L153.467 292.534C153.431 292.453 153.413 292.365 153.414 292.276C153.424 292.183 153.458 292.094 153.512 292.017L154.403 283.014C154.415 282.865 154.485 282.725 154.598 282.627C154.712 282.528 154.86 282.479 155.009 282.488L194.863 284.396C195.015 284.405 195.157 284.472 195.26 284.584C195.363 284.695 195.419 284.842 195.416 284.993L194.453 320.39C194.452 320.465 194.436 320.539 194.407 320.608C194.377 320.677 194.334 320.739 194.28 320.791C194.226 320.843 194.163 320.884 194.093 320.912C194.023 320.939 193.949 320.953 193.874 320.952L151.462 320.31C151.383 320.309 151.305 320.293 151.233 320.26C151.161 320.228 151.096 320.181 151.043 320.123C150.984 320.065 150.938 319.995 150.907 319.919C150.876 319.842 150.862 319.76 150.865 319.677ZM154.698 291.768L193.919 293.969C193.951 293.964 193.984 293.964 194.017 293.969L194.248 285.501L155.509 283.647L154.698 291.768ZM152.077 319.16L193.286 319.784L193.954 295.102C193.922 295.106 193.889 295.106 193.856 295.102L154.635 292.909L152.077 319.16ZM307.918 232.428C307.767 232.428 307.623 232.487 307.514 232.592C307.406 232.696 307.343 232.839 307.339 232.99C307.339 233.248 306.652 258.474 302.293 267.183C302.225 267.32 302.214 267.479 302.262 267.624C302.311 267.77 302.415 267.89 302.552 267.959C302.632 268 302.72 268.022 302.81 268.021C302.918 268.022 303.024 267.992 303.115 267.935C303.207 267.879 303.28 267.797 303.327 267.7C307.784 258.786 308.471 234.068 308.497 233.016C308.498 232.94 308.484 232.863 308.456 232.792C308.427 232.721 308.385 232.656 308.331 232.601C308.277 232.546 308.213 232.503 308.142 232.473C308.071 232.443 307.995 232.428 307.918 232.428ZM236.607 211.739L228.629 214.93C228.486 214.988 228.372 215.101 228.312 215.243C228.252 215.385 228.25 215.545 228.308 215.688C228.366 215.831 228.478 215.945 228.621 216.005C228.763 216.065 228.923 216.067 229.066 216.009L235.404 213.468L229.61 222.846C229.53 222.976 229.505 223.132 229.54 223.281C229.575 223.429 229.667 223.558 229.797 223.639C229.887 223.697 229.992 223.728 230.1 223.728C230.2 223.729 230.298 223.704 230.386 223.656C230.473 223.607 230.547 223.537 230.599 223.452L237.293 212.613C237.364 212.514 237.403 212.396 237.403 212.274C237.403 212.152 237.364 212.034 237.293 211.935C237.215 211.828 237.103 211.75 236.975 211.715C236.848 211.679 236.711 211.688 236.589 211.739H236.607Z" fill="#18253B"/>
<path d="M151.667 92.3915C140.444 97.2852 132.457 95.6629 128.188 93.889C128.122 93.8939 128.057 93.8939 127.992 93.889C127.9 93.9062 127.807 93.9062 127.715 93.889C126.717 93.5681 103.193 85.7685 101.366 75.8919C101.323 75.6555 101.376 75.4119 101.514 75.2146C101.651 75.0174 101.86 74.8826 102.097 74.8401C102.333 74.7975 102.577 74.8506 102.774 74.9877C102.971 75.1248 103.106 75.3346 103.149 75.571C104.316 81.8999 116.573 87.6493 123.535 90.4304C119.381 84.2888 118.186 75.3838 117.928 72.0857C115.468 68.9837 110.422 63.5819 103.764 61.3891C103.541 61.3138 103.357 61.1536 103.252 60.9432C103.146 60.7328 103.129 60.4894 103.202 60.2659C103.276 60.0414 103.435 59.8553 103.646 59.7483C103.856 59.6413 104.101 59.6223 104.325 59.6954C110.85 61.8793 115.797 66.7463 118.587 70.0712C134.044 54.1421 159.671 54.5343 159.671 54.5343C164.485 66.2293 169.076 84.7969 151.667 92.3915Z" fill="#FFAC67"/>
<path d="M133.1 71.025C133.006 71.0907 132.894 71.125 132.78 71.1231C132.685 71.1239 132.592 71.1015 132.508 71.058C132.424 71.0145 132.352 70.9512 132.298 70.8735C132.214 70.7447 132.183 70.5886 132.211 70.4375C132.24 70.2864 132.325 70.152 132.45 70.0623C133.029 69.679 146.658 60.6225 157.088 63.5284C157.234 63.572 157.358 63.6708 157.432 63.8038C157.507 63.9369 157.527 64.0939 157.489 64.2415C157.469 64.3155 157.435 64.3847 157.389 64.4454C157.342 64.5061 157.284 64.557 157.218 64.5951C157.151 64.6332 157.078 64.6578 157.002 64.6675C156.926 64.6772 156.849 64.6718 156.776 64.6516C146.872 61.8794 133.234 70.9359 133.1 71.025ZM157.961 71.8272C157.942 71.7535 157.908 71.6844 157.861 71.6241C157.814 71.5638 157.756 71.5134 157.689 71.476C157.623 71.4386 157.55 71.4149 157.474 71.4064C157.398 71.3978 157.321 71.4045 157.248 71.4261L136.202 77.4073C136.055 77.4489 135.93 77.5473 135.855 77.681C135.779 77.8146 135.76 77.9727 135.801 78.1204C135.838 78.2412 135.912 78.3472 136.013 78.4226C136.114 78.4981 136.237 78.539 136.363 78.5394H136.523L157.569 72.5582C157.643 72.5368 157.713 72.5007 157.773 72.4522C157.833 72.4036 157.883 72.3435 157.919 72.2754C157.956 72.2073 157.978 72.1325 157.985 72.0556C157.993 71.9786 157.984 71.901 157.961 71.8272ZM156.767 80.1706C151.035 85.6705 137.718 85.0465 137.584 85.0376C137.503 85.0244 137.421 85.0285 137.342 85.0495C137.263 85.0705 137.189 85.1079 137.126 85.1594C137.062 85.2109 137.011 85.2752 136.974 85.3481C136.937 85.421 136.916 85.5009 136.912 85.5825C136.908 85.6641 136.922 85.7456 136.952 85.8217C136.982 85.8977 137.027 85.9665 137.086 86.0237C137.144 86.0808 137.214 86.1249 137.291 86.1531C137.367 86.1814 137.449 86.1931 137.531 86.1875C137.638 86.1875 138.217 86.1875 139.135 86.1875C142.977 86.1875 152.649 85.6972 157.569 80.9729C157.68 80.8665 157.744 80.7203 157.748 80.5665C157.751 80.4127 157.693 80.2639 157.587 80.1528C157.48 80.0417 157.334 79.9774 157.18 79.974C157.027 79.9707 156.878 80.0286 156.767 80.135V80.1706Z" fill="#FF6B5B"/>
<path d="M143.081 114.988C138.268 119.802 130.905 122.298 121.634 122.298C120.217 122.298 118.755 122.244 117.258 122.119C111.974 121.693 106.755 120.683 101.694 119.106C101.621 119.083 101.554 119.046 101.496 118.996C101.439 118.947 101.391 118.886 101.357 118.818C101.323 118.75 101.303 118.676 101.298 118.6C101.293 118.524 101.304 118.447 101.329 118.375C101.377 118.23 101.482 118.11 101.619 118.042C101.756 117.973 101.914 117.962 102.059 118.01C104.401 118.737 106.782 119.333 109.191 119.793L107.319 108.873C107.3 108.725 107.339 108.576 107.428 108.456C107.516 108.335 107.648 108.254 107.795 108.229C107.942 108.204 108.094 108.236 108.217 108.32C108.341 108.403 108.428 108.531 108.46 108.677L110.403 120.025C112.346 120.381 114.53 120.693 116.839 120.916L115.609 111.2C115.599 111.124 115.603 111.048 115.623 110.974C115.643 110.9 115.677 110.831 115.723 110.771C115.77 110.711 115.827 110.66 115.893 110.622C115.959 110.584 116.032 110.559 116.108 110.549C116.183 110.539 116.26 110.544 116.334 110.564C116.407 110.583 116.476 110.617 116.537 110.664C116.597 110.71 116.648 110.768 116.686 110.834C116.724 110.9 116.749 110.973 116.758 111.048L118.024 121.005C120.678 121.198 123.343 121.177 125.993 120.943L124.897 111.859C124.887 111.784 124.892 111.707 124.911 111.634C124.931 111.56 124.965 111.491 125.011 111.431C125.058 111.37 125.116 111.319 125.182 111.281C125.248 111.243 125.32 111.219 125.396 111.209C125.549 111.193 125.702 111.238 125.823 111.332C125.944 111.427 126.025 111.565 126.047 111.717L127.143 120.827C129.893 120.52 132.591 119.852 135.166 118.839L133.864 110.05C133.851 109.975 133.854 109.898 133.871 109.824C133.889 109.75 133.921 109.68 133.966 109.619C134.011 109.557 134.067 109.505 134.133 109.466C134.198 109.427 134.27 109.401 134.345 109.39C134.421 109.379 134.498 109.383 134.572 109.401C134.646 109.42 134.716 109.453 134.777 109.498C134.839 109.544 134.89 109.601 134.929 109.667C134.968 109.732 134.994 109.805 135.005 109.881L136.262 118.358C138.507 117.335 140.556 115.926 142.314 114.195C142.368 114.141 142.432 114.098 142.503 114.069C142.573 114.04 142.648 114.025 142.725 114.025C142.801 114.025 142.876 114.04 142.946 114.069C143.017 114.098 143.081 114.141 143.135 114.195C143.188 114.249 143.231 114.313 143.26 114.383C143.289 114.453 143.304 114.529 143.304 114.605C143.304 114.681 143.289 114.756 143.26 114.827C143.231 114.897 143.188 114.961 143.135 115.015L143.081 114.988Z" fill="#FFAC67"/>
</svg>
