<svg width="400" height="346" viewBox="0 0 400 346" fill="none" xmlns="http://www.w3.org/2000/svg">
<path d="M117.641 165.904C99.3853 163.944 99.3853 163.944 99.3853 163.944L103.835 172.656L79.5752 173.272L49.1239 236.152C49.1239 236.152 20.8075 226.648 18.8036 205.744C16.7997 184.84 34.1642 150.88 34.1642 150.88C34.1642 150.88 29.9355 128.888 27.9316 116.696C25.9277 104.504 34.6058 91.2241 46.6293 90.7841C58.6527 90.3521 58.6527 90.3521 58.6527 90.3521L81.7999 133.68L84.4745 132.152L84.9162 92.5281C84.9162 92.5281 103.172 92.096 111.85 105.808C120.529 119.528 125.878 127.576 130.769 138.248C135.676 148.92 135.897 167.864 117.641 165.904ZM153.393 294.736C153.393 294.736 145.254 292.616 141.189 297.92L130.614 288.104C130.614 288.104 125.731 295 131.971 302.688C138.204 310.376 150.677 321.256 153.932 324.704C157.188 328.152 160.443 326.824 159.355 320.464C158.276 314.096 153.393 294.736 153.393 294.736ZM231.218 337.168C226.065 334.784 203.834 323.904 203.834 323.904C203.834 323.904 199.769 326.288 200.039 331.592H180.515C180.515 331.592 181.325 344.856 190.273 344.856C199.221 344.856 226.335 344.856 231.218 344.856C236.093 344.864 236.371 339.56 231.218 337.168Z" fill="#E45D55"/>
<path d="M62.3252 235.232C89.3248 235.232 135.603 235.232 135.603 235.232L133.149 244.152C133.149 244.152 128.593 253.072 112.816 253.072C97.0378 253.072 54.2605 253.072 39.8814 253.072C25.5023 253.072 21.2982 242.784 16.3907 232.84C11.4832 222.896 2.01162 175.224 0.261267 165.624C-1.48909 156.024 5.87221 151.904 12.8818 151.904C19.8914 151.904 34.1641 151.904 34.1641 151.904C34.1641 151.904 24.0955 175.224 19.8914 194.088C15.6873 212.944 35.3256 235.232 62.3252 235.232ZM385.895 150.52C385.895 150.52 378.182 181.384 373.275 199.216C368.367 217.048 350.119 229.736 335.388 229.736C320.666 229.736 315.415 229.392 315.415 229.392L310.99 253.296C310.99 253.296 331.52 253.296 353.26 253.296C375 253.296 386.247 235.912 391.154 214.648C396.062 193.384 398.867 174.864 399.922 163.896C400.969 152.928 391.154 150.52 385.895 150.52Z" fill="#FF6B5B"/>
<path d="M172.981 225.176L192.235 299.424H161.129L152.983 283.848L154.643 274.128L129.296 265.864L135.594 235.232C135.594 235.232 73.2679 235.232 62.316 235.232C51.364 235.232 49.998 233.344 49.998 233.344L79.5741 173.264L103.834 172.648C103.834 172.648 126.318 172.648 147.421 172.648C168.531 172.648 182.968 186.784 178.158 204.888C173.349 223 172.981 225.176 172.981 225.176ZM373.061 83.3441C362.82 80.7201 347.705 79.7681 347.705 79.7681C347.705 79.7681 335.273 88.3521 325.033 83.3441C325.033 83.3441 308.453 86.2081 304.061 95.2641C299.669 104.328 286.508 132.704 286.508 132.704L252.376 93.8321L234.578 109.336C234.578 109.336 264.809 147.496 272.612 157.512C280.415 167.528 298.458 165.856 298.458 165.856L296.749 175.872L301.141 195.904C301.141 195.904 340.884 190.896 355.516 189.464C370.149 188.032 377.707 181.352 380.144 173.248C382.581 165.136 391.358 130.08 392.094 112.672C392.814 95.2721 383.301 85.9681 373.061 83.3441ZM259.771 334.664C259.771 334.664 254.912 335.32 254.912 339.112C254.912 342.904 256.262 345.376 259.631 345.376C263.001 345.376 297.379 345.376 302.711 345.376C308.044 345.376 306.008 334.72 306.008 334.72L259.771 334.664Z" fill="#88BA89"/>
<path d="M98.5178 53.6156C99.9737 61.5836 98.5179 75.8236 92.6942 80.3756C86.8706 84.9276 82.0694 85.3596 82.0694 85.3596L82.2739 87.9516L78.2416 93.9996L75.8205 102.544L74.0702 94.7916L64.0179 88.2076C64.0179 88.2076 63.4372 83.6556 59.9446 82.5116C56.4521 81.3676 45.4511 64.7756 48.0684 53.6716C50.6858 42.5676 59.3639 30.4156 76.6793 33.1196C94.0029 35.8236 97.0619 45.6476 98.5178 53.6156ZM99.8674 128.56L109.707 138.072L105.184 127.568C105.184 127.568 102.689 126.904 99.8674 128.56ZM65.2693 133.312C59.0531 134.416 55.6996 136.032 54.3419 137.472C52.9841 138.912 50.4649 146.696 50.3504 149.352C50.2359 152.008 49.9006 157.752 52.8369 157.752C55.7732 157.752 63.5762 153.216 66.5126 151.448C69.4489 149.68 70.6921 141.272 70.6921 141.272L78.3806 136.184C78.3888 136.192 71.4937 132.208 65.2693 133.312ZM198.672 319.328C197.364 315.904 192.235 299.424 192.235 299.424L171.002 299.232C171.002 299.232 177.832 315.624 179.14 321.328C180.449 327.032 180.506 331.608 180.506 331.608C180.506 331.608 194.885 331.608 200.03 331.608C200.513 327.632 203.825 323.92 203.825 323.92C203.825 323.92 199.989 322.744 198.672 319.328ZM154.652 274.128L135.283 267.872C135.283 267.872 134.703 272.008 133.533 277.992C132.363 283.976 130.621 288.112 130.621 288.112L141.197 297.928C146.669 293.056 153.4 294.744 153.4 294.744C153.4 294.744 152.484 288.544 152.991 283.856C153.499 279.16 154.652 274.128 154.652 274.128ZM273.839 294.568L266.748 296.12C266.748 296.12 269.226 301.776 270.715 308.4C272.204 315.024 270.879 320.192 270.052 322.456L271.541 323.264C271.541 323.264 274.183 320.84 275.009 317.608C275.009 317.608 288.063 314.536 293.012 324.072H302.262L302.589 308.888H275.025L273.839 294.568ZM285.797 191.616C297.788 190.408 299.326 188.592 299.326 188.592L296.749 175.872C296.749 175.872 291.008 176.48 284.268 176.84C277.528 177.2 269.128 178.984 266.944 180.768C264.752 182.552 259.1 187.544 259.649 191.824C263.787 191.376 264.082 190.928 264.082 190.928C264.082 190.928 273.807 192.824 285.797 191.616ZM227.979 83.6076C222.507 83.1836 219.767 82.6956 216.961 82.3356C214.156 81.9836 213.289 84.3756 214.655 85.3676C216.021 86.3516 219.693 88.1836 219.693 88.1836L211.195 90.5756C211.195 90.5756 205.142 87.7596 203.343 86.7676C201.543 85.7836 198.231 87.8236 200.963 90.2236C203.703 92.6156 208.234 94.9436 211.481 96.6316C214.72 98.3196 221.492 98.4636 227.684 98.6716C233.876 98.8796 236.043 98.8156 236.043 98.8156L240.795 103.888L252.377 93.8316C252.377 93.8316 246.922 88.9516 243.028 86.7676C239.143 84.5916 233.45 84.0316 227.979 83.6076ZM349.963 33.9196C347.493 14.4476 304.757 11.5916 300.258 35.7356C295.76 59.8796 300.258 65.3196 306.327 71.7036C312.396 78.0796 323.643 76.5436 323.643 76.5436L325.025 83.3516C337.204 88.5596 347.698 79.7756 347.698 79.7756L342.545 69.9996C342.545 69.9996 352.434 53.3836 349.963 33.9196Z" fill="#E59F61"/>
<path d="M128.553 336.264C129.076 338.536 127.309 340.696 124.929 340.696C123.253 340.696 121.78 339.6 121.347 338.016L97.4553 252.992L109.299 252.824L128.553 336.264ZM356.074 252.824L344.231 252.992L368.122 338.016C368.564 339.6 370.028 340.696 371.705 340.696C374.085 340.696 375.851 338.536 375.328 336.264L356.074 252.824ZM22.7545 336.264C22.2311 338.536 23.9978 340.696 26.3779 340.696C28.0547 340.696 29.5269 339.6 29.9604 338.016L53.8519 252.992L42.0084 252.824L22.7545 336.264ZM380.137 173.248C380.137 173.248 376.236 186.032 360.998 188.36C345.76 190.688 301.142 195.904 301.142 195.904L299.327 188.592C299.327 188.592 282.657 193.952 264.082 190.92C264.082 190.92 244.796 193.712 240.036 206.296C235.275 218.872 238.841 230.52 241.467 241.464C244.084 252.408 259.805 298.296 259.805 298.296L273.857 294.568L275.051 309.008H276.286C276.384 310.864 276.433 314.592 275.443 317.536C275.304 317.56 275.165 317.584 275.026 317.608C275.026 317.608 274.028 320.112 272.384 322.36L270.07 322.448C270.07 322.448 265.579 330.08 259.42 334.712H306.025C306.025 334.712 305.494 324.064 302.279 324.064C299.073 324.064 293.029 324.064 293.029 324.064C293.029 324.064 290.362 315.4 276.678 317.328C277.545 314.328 277.521 310.848 277.415 309H306.475C306.475 309 313.379 254.736 316.004 230.28C316.004 230.28 319.341 230.28 333.868 230.28C348.377 230.288 373.561 224.288 380.137 173.248ZM320.077 50.552C320.863 50.552 321.501 49.928 321.501 49.16C321.501 48.392 320.863 47.768 320.077 47.768C319.292 47.768 318.654 48.392 318.654 49.16C318.654 49.928 319.292 50.552 320.077 50.552ZM302.77 51.864C303.555 51.864 304.193 51.24 304.193 50.472C304.193 49.704 303.555 49.08 302.77 49.08C301.985 49.08 301.347 49.704 301.347 50.472C301.347 51.24 301.985 51.864 302.77 51.864ZM260.95 188.152C260.647 188.224 260.467 188.528 260.541 188.824C260.606 189.072 260.835 189.24 261.089 189.24C261.138 189.24 261.179 189.232 261.228 189.224C261.252 189.216 263.992 188.56 266.569 188.56C266.88 188.56 267.133 188.312 267.133 188.008C267.133 187.704 266.88 187.456 266.569 187.456C263.845 187.448 261.072 188.12 260.95 188.152ZM269.072 185.472C269.366 185.504 269.661 185.288 269.693 184.984C269.726 184.68 269.505 184.408 269.194 184.376C265.98 184.032 262.937 184.816 262.806 184.848C262.504 184.928 262.324 185.232 262.406 185.52C262.471 185.768 262.7 185.928 262.954 185.928C263.003 185.928 263.052 185.92 263.101 185.912C263.125 185.904 266.062 185.144 269.072 185.472ZM272.662 182.616C272.687 182.616 272.72 182.624 272.744 182.624C273.022 182.624 273.26 182.424 273.3 182.152C273.349 181.848 273.137 181.568 272.826 181.528C269.628 181.064 266.716 181.512 266.593 181.528C266.283 181.576 266.078 181.856 266.127 182.16C266.176 182.464 266.446 182.672 266.773 182.616C266.798 182.616 269.644 182.184 272.662 182.616ZM220.847 90.072C214.459 90.384 211.286 90.04 211.261 90.032C210.934 89.992 210.672 90.216 210.639 90.52C210.607 90.824 210.828 91.096 211.138 91.128C211.269 91.144 214.418 91.488 220.912 91.168C227.587 90.84 231.873 90.792 235.022 92.88C235.12 92.944 235.226 92.976 235.341 92.976C235.521 92.976 235.701 92.888 235.807 92.736C235.979 92.48 235.913 92.144 235.66 91.968C232.208 89.696 227.767 89.736 220.847 90.072ZM307.31 45.368C307.359 45.4 307.408 45.464 307.457 45.504C308.921 44.768 310.401 45.2 311.187 45.536C311.236 45.48 311.277 45.408 311.334 45.36C317.673 39.832 325.566 43.264 327.799 44.736L332.199 43.36C332.24 42.992 332.297 42.616 332.387 42.208C332.387 42.208 323.153 42.032 325.288 31.616C325.288 31.616 314.81 38.824 307.179 31.44C307.179 31.44 305.494 34.392 300.963 34.048L299.098 42.992C299.098 42.992 294.035 40.04 296.431 33.528C296.431 33.528 292.08 23.024 297.584 18.336C303.089 13.648 310.189 16.512 310.189 16.512C310.189 16.512 313.117 11.04 320.576 11.648C328.036 12.256 331.054 16.6 331.054 16.6C331.054 16.6 337.892 11.216 344.901 15.472C351.911 19.728 350.758 26.76 350.758 26.76C350.758 26.76 357.685 27.544 359.46 36.656C361.235 45.776 354.397 50.632 354.397 50.632C354.397 50.632 355.641 60.096 351.559 65.392C347.478 70.688 342.546 69.984 342.546 69.984C342.546 69.984 337.982 65.736 340.558 57.92C340.558 57.92 348.189 55.752 347.748 47.504C347.306 39.256 340.468 41.776 340.468 41.776L336.558 50.808C336.558 50.808 332.191 49.536 332.134 44.536L328.592 45.64C329.164 46.856 329.328 49.096 328.633 51.128C327.954 53.112 325.934 56.432 319.979 56.432C313.82 56.432 311.645 53.208 310.892 51.28C310.213 49.544 310.246 47.72 310.663 46.496C310.082 46.256 309.068 45.992 308.07 46.448C308.512 47.656 308.602 49.56 308.234 51.392L308.765 51.52C308.765 51.52 307.98 54.672 307.547 56.496C307.49 56.752 307.44 57.088 307.547 57.24C307.751 57.52 308.684 57.6 309.755 57.696C310.05 57.72 310.369 57.752 310.712 57.784C311.023 57.816 311.244 58.088 311.211 58.392C311.178 58.672 310.933 58.888 310.655 58.888C310.639 58.888 310.614 58.888 310.598 58.888C310.262 58.856 309.951 58.824 309.657 58.8C308.144 58.664 307.146 58.576 306.631 57.888C306.238 57.36 306.336 56.704 306.443 56.248C306.541 55.848 306.647 55.384 306.762 54.904C305.69 56.352 304.177 57.208 302.296 57.368C302.083 57.384 301.87 57.392 301.666 57.392C299.179 57.392 297.118 56.072 295.81 53.624C294.468 51.104 294.166 47.6 295.188 46.4C298.795 42.216 305.682 44.376 307.31 45.368ZM312.086 46.184C312.062 46.208 312.029 46.256 312.004 46.288C312.004 46.384 311.988 46.488 311.923 46.576C311.882 46.64 311.816 46.688 311.759 46.728C311.424 47.576 311.277 49.192 311.939 50.904C312.585 52.56 314.491 55.344 319.971 55.344C324.96 55.344 326.85 52.872 327.561 50.792C328.404 48.32 327.741 46.056 327.373 45.792C325.778 44.616 318.033 41 312.086 46.184ZM296.055 47.136C295.523 47.752 295.482 50.648 296.816 53.136C297.658 54.712 299.261 56.544 302.206 56.288C305.486 56.008 306.647 53.24 307.048 51.616C307.702 48.944 307.13 46.552 306.729 46.304C305.927 45.816 303.678 44.992 301.306 44.992C299.408 44.992 297.437 45.512 296.055 47.136ZM315.554 65.624C315.26 65.728 315.104 66.04 315.211 66.328C315.293 66.552 315.513 66.696 315.742 66.696C315.808 66.696 315.865 66.688 315.931 66.664C316.053 66.624 319.014 65.584 320.396 63.184C321.378 61.472 320.773 60.648 320.462 60.368C319.734 59.72 318.409 59.904 317.002 60.848C314.867 62.288 312.283 62.504 312.25 62.504C311.939 62.528 311.71 62.792 311.735 63.096C311.759 63.4 312.054 63.624 312.34 63.6C312.454 63.592 315.243 63.36 317.64 61.752C318.761 61 319.497 61 319.701 61.184C319.881 61.344 319.865 61.864 319.415 62.64C318.245 64.672 315.587 65.608 315.554 65.624ZM314.532 41.576C314.556 41.552 317.419 39.224 322.85 41.392C323.136 41.504 323.464 41.376 323.586 41.088C323.701 40.808 323.562 40.488 323.275 40.368C317.215 37.952 313.935 40.624 313.796 40.744C313.559 40.944 313.534 41.288 313.738 41.52C313.853 41.648 314.008 41.712 314.164 41.712C314.295 41.712 314.426 41.664 314.532 41.576ZM300.684 41.576C300.799 41.48 303.613 39.24 309.003 41.384C309.289 41.496 309.616 41.368 309.739 41.08C309.853 40.8 309.714 40.48 309.428 40.36C303.367 37.944 300.087 40.616 299.948 40.736C299.711 40.936 299.687 41.28 299.891 41.512C300.006 41.64 300.161 41.704 300.325 41.704C300.447 41.712 300.578 41.664 300.684 41.576ZM299.073 161.672C299.351 161.672 299.597 161.472 299.629 161.192L305.167 120.72C306.042 113.568 308.307 108.712 310.148 106.56C310.344 106.328 310.311 105.976 310.074 105.784C309.837 105.592 309.477 105.624 309.281 105.856C308.34 106.96 305.183 111.288 304.046 120.584L298.509 161.048C298.468 161.352 298.681 161.624 298.991 161.664C299.024 161.664 299.049 161.672 299.073 161.672ZM358.88 104.352C358.806 104.608 357.154 110.72 357.522 116.944C357.694 119.888 356.671 122.44 355.583 125.136C354.463 127.928 353.301 130.816 353.489 134.264C353.661 137.32 352.573 141.08 351.412 145.064C350.185 149.288 348.803 154.064 348.729 158.792L296.578 175.36C296.284 175.456 296.12 175.768 296.219 176.056C296.292 176.288 296.513 176.44 296.758 176.44C296.816 176.44 296.873 176.432 296.93 176.416L349.465 159.728C349.694 159.656 349.858 159.44 349.858 159.2C349.858 154.496 351.199 149.856 352.5 145.376C353.678 141.304 354.798 137.456 354.618 134.216C354.438 131.016 355.559 128.24 356.638 125.552C357.718 122.864 358.839 120.088 358.651 116.896C358.291 110.856 359.959 104.712 359.976 104.656C360.057 104.36 359.877 104.056 359.575 103.976C359.272 103.888 358.961 104.056 358.88 104.352ZM342.906 51.072C342.668 51.272 342.636 51.616 342.84 51.848C342.955 51.976 343.11 52.048 343.274 52.048C343.396 52.048 343.527 52.008 343.634 51.92C343.732 51.84 346.022 49.936 345.49 47.216C345.049 44.952 342.938 44.264 341.875 44.216C341.531 44.192 341.302 44.44 341.286 44.736C341.27 45.04 341.507 45.296 341.818 45.312C341.908 45.32 343.993 45.448 344.378 47.416C344.779 49.496 342.922 51.056 342.906 51.072ZM102.363 188.592C97.8725 188.248 93.9955 187.96 91.8444 187.472C84.344 185.792 82.7818 180.112 82.7246 179.872C82.6509 179.576 82.3401 179.4 82.0375 179.472C81.7349 179.544 81.5549 179.848 81.6285 180.136C81.694 180.4 83.3953 186.712 91.5908 188.544C93.8238 189.04 97.5535 189.328 102.273 189.688C114.026 190.584 131.718 191.92 141.533 198.264L135.382 230.376C135.325 230.672 135.53 230.96 135.832 231.016C135.865 231.024 135.906 231.024 135.939 231.024C136.208 231.024 136.438 230.84 136.495 230.576L142.719 198.104C142.76 197.888 142.67 197.672 142.482 197.544C132.487 190.88 114.362 189.504 102.363 188.592ZM172.369 229.488C172.066 229.408 171.755 229.584 171.682 229.88L159.462 275.384L155.291 273.968C154.996 273.864 154.677 274.024 154.571 274.312C154.464 274.6 154.628 274.912 154.914 275.016L159.658 276.624C159.716 276.648 159.781 276.656 159.846 276.656C159.936 276.656 160.026 276.632 160.108 276.592C160.247 276.52 160.345 276.392 160.386 276.248L172.761 230.168C172.851 229.864 172.671 229.568 172.369 229.488ZM136.593 281.968C136.47 282.064 133.632 284.432 133.951 288.4C133.976 288.688 134.221 288.904 134.515 288.904C134.532 288.904 134.548 288.904 134.564 288.904C134.875 288.88 135.104 288.616 135.08 288.312C134.802 284.928 137.296 282.84 137.321 282.816C137.558 282.616 137.591 282.272 137.394 282.04C137.19 281.808 136.838 281.776 136.593 281.968ZM186.854 323.4C186.969 323.12 186.83 322.8 186.543 322.68C186.249 322.56 185.93 322.704 185.807 322.984C185.75 323.128 184.343 326.616 186.633 329.808C186.74 329.96 186.92 330.04 187.091 330.04C187.206 330.04 187.312 330.008 187.419 329.936C187.672 329.76 187.738 329.416 187.558 329.168C185.627 326.488 186.838 323.432 186.854 323.4ZM87.6648 163.04C87.7139 163.064 87.763 163.08 87.8202 163.088L99.3202 164.488C99.3447 164.488 99.3693 164.496 99.3938 164.496C99.6719 164.496 99.9173 164.288 99.95 164.016C99.9909 163.712 99.7701 163.44 99.4592 163.4L88.7281 162.088C98.3714 153.392 111.973 140.528 112.129 140.384C112.243 140.28 112.301 140.128 112.301 139.976C112.301 139.824 112.227 139.68 112.113 139.576L111.057 138.64L116.006 138.704H116.014C116.325 138.704 116.57 138.464 116.578 138.16C116.578 137.856 116.333 137.608 116.022 137.6L110.084 137.528L100.555 114.968C100.433 114.688 100.105 114.552 99.8191 114.672C99.5329 114.784 99.3938 115.112 99.5165 115.392L108.301 136.208L95.5005 124.864C95.3124 124.696 95.0261 124.672 94.8053 124.816L84.4831 131.584L84.9248 92.544L82.2747 87.968L78.2424 94.016L75.8213 102.56L74.0709 94.808L63.5934 86.4L58.6531 90.376L81.6613 133.44L70.3821 140.84C70.1204 141.008 70.055 141.352 70.2267 141.608C70.3985 141.864 70.7502 141.928 71.0119 141.76L95.067 125.984L110.91 140C108.113 142.648 92.4578 157.4 84.0005 164.808C72.8195 174.608 54.6208 175.008 47.0141 168.808C37.8861 161.368 35.4896 154.96 35.4732 154.896C35.3669 154.608 35.0479 154.456 34.7534 154.56C34.459 154.664 34.3036 154.976 34.4099 155.264C34.5081 155.536 36.9046 162 46.2943 169.656C50.0568 172.72 55.2506 174.056 60.7552 174.056C69.466 174.056 78.9458 170.72 84.753 165.632C85.6527 164.84 86.6342 163.968 87.6648 163.04ZM57.6471 135.344C57.6716 135.344 57.6961 135.344 57.7207 135.336C58.0315 135.296 58.2442 135.016 58.2033 134.712L56.4202 121.872C56.3793 121.568 56.1012 121.36 55.7822 121.4C55.4714 121.44 55.2587 121.72 55.2996 122.024L57.0827 134.864C57.1236 135.144 57.369 135.344 57.6471 135.344ZM75.8377 58.144C75.8377 58.912 76.4756 59.536 77.2608 59.536C78.046 59.536 78.684 58.912 78.684 58.144C78.684 57.376 78.046 56.752 77.2608 56.752C76.4756 56.752 75.8377 57.376 75.8377 58.144ZM92.2125 58.144C92.2125 58.912 92.8504 59.536 93.6356 59.536C94.4208 59.536 95.0588 58.912 95.0588 58.144C95.0588 57.376 94.4208 56.752 93.6356 56.752C92.8504 56.752 92.2125 57.376 92.2125 58.144ZM91.0837 66.184C91.3127 65.832 91.3373 65.416 91.1573 65C90.4703 63.432 88.3764 59.656 88.2864 59.496C88.1392 59.232 87.7957 59.128 87.5176 59.272C87.2477 59.416 87.1413 59.752 87.2886 60.024C87.3131 60.064 89.4479 63.92 90.1104 65.44C90.1513 65.544 90.1349 65.568 90.1186 65.592C89.8487 66 88.2701 66.312 86.9696 66.344C86.6588 66.352 86.4134 66.608 86.4216 66.912C86.4298 67.208 86.6833 67.448 86.9859 67.448C86.9941 67.448 86.9941 67.448 87.0023 67.448C87.5667 67.432 90.3558 67.304 91.0837 66.184ZM85.9554 72.528C86.6588 72.528 87.4767 72.408 88.4255 72.096C88.7199 72 88.8835 71.688 88.7854 71.4C88.6872 71.112 88.3682 70.952 88.0738 71.048C84.5158 72.208 83.3298 70.28 83.2807 70.192C83.1335 69.928 82.79 69.832 82.5201 69.976C82.2502 70.12 82.1438 70.456 82.2911 70.728C82.3401 70.816 83.3298 72.528 85.9554 72.528ZM83.477 53.408C83.5752 53.48 83.6979 53.512 83.8124 53.512C83.9842 53.512 84.1559 53.432 84.2704 53.288C84.4504 53.04 84.4013 52.696 84.1477 52.52C78.7658 48.664 72.6314 52.464 72.5742 52.504C72.3124 52.672 72.2388 53.008 72.4106 53.264C72.5823 53.52 72.9259 53.592 73.1876 53.432C73.4003 53.288 78.7331 50.008 83.477 53.408ZM89.0553 52.52C88.8017 52.704 88.7526 53.048 88.9408 53.288C89.1289 53.536 89.4806 53.584 89.726 53.4C89.8896 53.28 93.8401 50.488 96.9809 53.36C97.0873 53.456 97.2263 53.512 97.3654 53.512C97.5126 53.512 97.668 53.456 97.7743 53.336C97.987 53.112 97.9788 52.768 97.7498 52.56C93.9219 49.064 89.1044 52.488 89.0553 52.52ZM40.7488 52.64C40.4625 63.392 46.9814 75.248 59.9536 82.512L56.7065 67.392C56.7065 67.392 50.891 68.936 49.5169 63.144C48.1428 57.352 55.6432 56.32 55.6432 56.32L56.6983 67.392C56.6983 67.392 61.0823 64.56 64.2477 59.088H71.2982C71.4454 61.08 72.5087 65.328 78.9049 65.328C84.4095 65.328 85.9554 59.96 86.2416 58.672C86.6997 58.448 87.8938 58.008 89.1125 58.664C89.3906 59.84 90.822 64.656 95.3042 64.656C96.8419 64.656 98.0442 64.232 98.8867 63.408C100.326 61.992 100.318 59.744 100.31 58.536V58.312C100.31 58.008 100.056 57.76 99.7455 57.76C99.4347 57.76 99.1812 58.008 99.1812 58.312V58.536C99.1893 59.656 99.1975 61.536 98.0851 62.624C97.4635 63.24 96.5229 63.544 95.3042 63.544C91.1655 63.544 90.2004 58.424 90.1677 58.208C90.1431 58.056 90.0531 57.92 89.9141 57.84C87.6975 56.44 85.5219 57.784 85.4319 57.84C85.301 57.928 85.2029 58.064 85.1783 58.216C85.1374 58.464 84.1477 64.208 78.8967 64.208C73.2448 64.208 72.3942 60.648 72.3942 58.52C72.3942 58.216 72.1407 57.968 71.8298 57.968H64.8366C66.9959 53.76 68.321 48.184 66.7015 41.296C66.7015 41.296 80.5734 48.232 95.8277 45.216C95.8277 45.216 93.3657 33.008 81.1869 30.296C70.4476 27.904 57.1972 27.512 48.1919 36.024C47.2431 34.488 44.7648 31.832 39.2029 32.504C31.4899 33.432 28.4309 44.28 32.6514 49.448C35.146 52.48 38.4341 52.848 40.7488 52.64ZM78.5859 87.072C79.0603 87.264 80.5489 87.544 82.2665 87.816L82.0784 85.36C78.2505 85.36 77.2445 86.528 78.5859 87.072ZM64.7712 139.728C64.4604 139.672 64.1741 139.872 64.1168 140.168C64.0514 140.528 62.481 148.936 64.5749 152.008C64.6812 152.168 64.8611 152.256 65.0411 152.256C65.1474 152.256 65.2537 152.224 65.3519 152.16C65.6136 151.992 65.6791 151.648 65.5073 151.392C63.9778 149.152 64.7794 142.672 65.221 140.36C65.2783 140.072 65.0738 139.784 64.7712 139.728ZM59.7982 141.792C59.4874 141.736 59.2011 141.936 59.1439 142.232C59.0784 142.592 57.508 151 59.6019 154.072C59.7082 154.232 59.8882 154.32 60.0681 154.32C60.1745 154.32 60.2808 154.288 60.3789 154.224C60.6407 154.056 60.7061 153.712 60.5343 153.456C59.0048 151.216 59.8064 144.736 60.2481 142.432C60.3053 142.136 60.1008 141.848 59.7982 141.792ZM55.1933 144.352C54.8825 144.296 54.5962 144.496 54.539 144.792C54.4735 145.152 52.9031 153.56 54.997 156.632C55.1033 156.792 55.2833 156.88 55.4632 156.88C55.5695 156.88 55.6759 156.848 55.774 156.784C56.0358 156.616 56.1012 156.272 55.9294 156.016C54.3999 153.776 55.2015 147.296 55.6432 144.992C55.7004 144.696 55.4959 144.408 55.1933 144.352ZM156.926 59.912C150.334 59.912 149.091 55.696 148.944 53.144C148.894 52.288 148.674 49.496 148.371 45.624C147.447 33.752 145.893 13.88 146.04 9.608C146.236 3.8 150.367 0.76 154.334 0.76C155.961 0.76 174.831 0.592 194.796 0.416C217.755 0.208 241.483 0 243.839 0C248.247 0 250.399 2.592 250.399 7.928C250.399 11.544 250.521 27.12 250.554 31.808C250.579 34.36 252.034 36.68 254.357 37.848L276.188 48.84C276.425 48.96 276.539 49.224 276.474 49.472C276.408 49.72 276.22 49.912 275.901 49.88L254.938 48.968C252.582 48.864 250.382 49.896 249.008 51.72C247.83 53.288 246.113 54.192 243.896 54.416C238.809 54.928 163.674 59.696 157.45 59.904C157.278 59.912 157.098 59.912 156.926 59.912ZM157.417 58.8C163.633 58.6 238.702 53.832 243.782 53.32C245.671 53.128 247.119 52.376 248.1 51.072C249.695 48.952 252.263 47.752 254.987 47.872L273.382 48.672L253.842 38.832C251.143 37.472 249.45 34.784 249.425 31.816C249.384 27.128 249.27 11.544 249.27 7.928C249.27 3.208 247.593 1.104 243.839 1.104C241.483 1.104 217.755 1.312 194.813 1.52C174.839 1.696 155.978 1.864 154.342 1.864C150.915 1.864 147.349 4.536 147.177 9.648C147.03 13.856 148.641 34.472 149.508 45.544C149.811 49.424 150.031 52.224 150.08 53.088C150.301 57.024 152.771 58.952 157.417 58.8ZM160.722 14.528L234.375 13.96C234.686 13.96 234.94 13.712 234.932 13.408C234.932 13.104 234.678 12.864 234.367 12.864C234.367 12.864 234.367 12.864 234.359 12.864L160.713 13.432C160.403 13.432 160.149 13.68 160.157 13.984C160.157 14.28 160.411 14.528 160.722 14.528ZM160.91 26.28C160.599 26.28 160.345 26.528 160.354 26.832C160.354 27.136 160.607 27.376 160.918 27.376C160.918 27.376 160.918 27.376 160.926 27.376L234.572 26.808C234.883 26.808 235.136 26.56 235.128 26.256C235.128 25.952 234.85 25.72 234.564 25.712L160.91 26.28ZM234.948 39.512L161.294 40.08C160.983 40.08 160.73 40.328 160.738 40.632C160.738 40.936 160.992 41.176 161.302 41.176C161.302 41.176 161.302 41.176 161.311 41.176L234.956 40.608C235.267 40.608 235.521 40.36 235.512 40.056C235.512 39.76 235.259 39.512 234.948 39.512ZM330.997 77.448C330.997 76.176 329.811 75.36 323.644 76.544L324.731 81.888C327.553 80.296 330.997 78.2 330.997 77.448Z" fill="#2E1042"/>
</svg>
